<svg xmlns="http://www.w3.org/2000/svg" xmlns:xlink="http://www.w3.org/1999/xlink" xmlns:lucid="lucid" width="1922" height="1501"><g transform="translate(-1399 -1640)" lucid:page-tab-id="m-5o7ONTd-nK"><path d="M1000 1500h2500v2000H1000z" fill="#fff"/><path d="M1740 1668a8 8 0 0 1 8-8h1164a8 8 0 0 1 8 8v104a8 8 0 0 1-8 8H1748a8 8 0 0 1-8-8z" fill="none"/><use xlink:href="#a" transform="matrix(1,0,0,1,1740,1660) translate(171.62222222222272 42.13333333333335)"/><use xlink:href="#b" transform="matrix(1,0,0,1,1740,1660) translate(260.7074074074078 42.13333333333335)"/><use xlink:href="#c" transform="matrix(1,0,0,1,1740,1660) translate(485.90185185185203 42.13333333333335)"/><use xlink:href="#d" transform="matrix(1,0,0,1,1740,1660) translate(592.3574074074074 42.13333333333335)"/><use xlink:href="#e" transform="matrix(1,0,0,1,1740,1660) translate(738.5166666666665 42.13333333333335)"/><use xlink:href="#f" transform="matrix(1,0,0,1,1740,1660) translate(916.6870370370367 42.13333333333335)"/><use xlink:href="#g" transform="matrix(1,0,0,1,1740,1660) translate(376.59259259259284 95.73333333333329)"/><use xlink:href="#h" transform="matrix(1,0,0,1,1740,1660) translate(462.3277777777779 95.73333333333329)"/><use xlink:href="#i" transform="matrix(1,0,0,1,1740,1660) translate(642.2351851851852 95.73333333333329)"/><path d="M1800 2248a8 8 0 0 1 8-8h204a8 8 0 0 1 8 8v124a8 8 0 0 1-8 8h-204a8 8 0 0 1-8-8z" stroke="#3a414a" fill="#b8f5ed"/><use xlink:href="#j" transform="matrix(1,0,0,1,1805.561,2245.561) translate(73.69753086419753 69.86077777777777)"/><path d="M2293.6 2194.8a10.67 10.67 0 0 1 12.8 0l67.2 50.4a6 6 0 0 1 0 9.6l-67.2 50.4a10.67 10.67 0 0 1-12.8 0l-67.2-50.4a6 6 0 0 1 0-9.6z" stroke="#3a414a" fill="#ffdda6"/><use xlink:href="#k" transform="matrix(1,0,0,1,2225,2195) translate(45.055 59.0875)"/><use xlink:href="#l" transform="matrix(1,0,0,1,2225,2195) translate(87.005 59.0875)"/><path d="M2620 2178a8 8 0 0 1 8-8h224a8 8 0 0 1 8 8v124a8 8 0 0 1-8 8h-224a8 8 0 0 1-8-8z" stroke="#3a414a" fill="#b8f5ed"/><use xlink:href="#m" transform="matrix(1,0,0,1,2625.561,2175.561) translate(27.648148148148163 69.86077777777777)"/><path d="M2021 2310h89a12 12 0 0 0 12-12v-36a12 12 0 0 1 12-12h73.1" stroke="#3a414a" fill="none"/><path d="M2021 2310.47h-.5v-.94h.5z" stroke="#3a414a" stroke-width=".05" fill="#3a414a"/><path d="M2221.88 2250l-14.27 4.64v-9.28z" stroke="#3a414a" fill="#3a414a"/><path d="M2377 2250h121v-.02h105.12" stroke="#3a414a" fill="none"/><path d="M2377 2250.47h-.54l.04-.47-.04-.47h.55z" stroke="#3a414a" stroke-width=".05" fill="#3a414a"/><path d="M2617.88 2249.98l-14.26 4.63v-9.26z" stroke="#3a414a" fill="#3a414a"/><path d="M1540 2160c0 33.14-26.86 60-60 60s-60-26.86-60-60 26.86-60 60-60 60 26.86 60 60z" stroke="#1071e5" stroke-width="2" fill="#ffd6f5"/><use xlink:href="#n" transform="matrix(1,0,0,1,1425,2105) translate(36.525 59.0875)"/><path d="M1560 2360c0 33.14-26.86 60-60 60s-60-26.86-60-60 26.86-60 60-60 60 26.86 60 60z" stroke="#1071e5" stroke-width="2" fill="#ffd6f5"/><use xlink:href="#o" transform="matrix(1,0,0,1,1445,2305) translate(4.099999999999994 59.0875)"/><path d="M1600 1980c0 33.14-26.86 60-60 60s-60-26.86-60-60 26.86-60 60-60 60 26.86 60 60z" stroke="#1071e5" stroke-width="2" fill="#ffd6f5"/><use xlink:href="#p" transform="matrix(1,0,0,1,1485,1925) translate(18.574999999999996 59.0875)"/><use xlink:href="#q" transform="matrix(1,0,0,1,1485,1925) translate(73.475 59.0875)"/><path d="M2105.17 2708a8 8 0 0 1 8-8h204a8 8 0 0 1 8 8v124a8 8 0 0 1-8 8h-204a8 8 0 0 1-8-8z" stroke="#3a414a" fill="#b8f5ed"/><use xlink:href="#r" transform="matrix(1,0,0,1,2110.7287807616244,2705.561) translate(68.79012345679013 69.86077777777777)"/><path d="M2300 2308.33v183.34a12 12 0 0 1-12 12h-60.83a12 12 0 0 0-12 12v167.45" stroke="#3a414a" fill="none"/><path d="M2300 2307.83l.47-.03v.55h-.94v-.55z" stroke="#3a414a" stroke-width=".05" fill="#3a414a"/><path d="M2215.17 2697.88l-4.64-14.26h9.27z" stroke="#3a414a" fill="#3a414a"/><path d="M2780 2668a8 8 0 0 1 8-8h224a8 8 0 0 1 8 8v124a8 8 0 0 1-8 8h-224a8 8 0 0 1-8-8z" stroke="#3a414a" fill="#b8f5ed"/><use xlink:href="#s" transform="matrix(1,0,0,1,2785.561,2665.561) translate(36.47530864197532 53.73577777777778)"/><use xlink:href="#t" transform="matrix(1,0,0,1,2785.561,2665.561) translate(146.9074074074074 53.73577777777778)"/><use xlink:href="#u" transform="matrix(1,0,0,1,2785.561,2665.561) translate(66.01234567901234 80.40244444444446)"/><path d="M1580 2520c0 33.14-26.86 60-60 60s-60-26.86-60-60 26.86-60 60-60 60 26.86 60 60z" stroke="#1071e5" stroke-width="2" fill="#ffd6f5"/><use xlink:href="#v" transform="matrix(1,0,0,1,1465,2465) translate(23.049999999999997 59.0875)"/><path d="M1820 1960c0 33.14-26.86 60-60 60s-60-26.86-60-60 26.86-60 60-60 60 26.86 60 60z" stroke="#1071e5" stroke-width="2" fill="#ffd6f5"/><use xlink:href="#w" transform="matrix(1,0,0,1,1705,1905) translate(10.79999999999999 48.775)"/><use xlink:href="#x" transform="matrix(1,0,0,1,1705,1905) translate(16.1 70.375)"/><path d="M2720 1935c0 33.14-26.86 60-60 60s-60-26.86-60-60 26.86-60 60-60 60 26.86 60 60z" stroke="#1071e5" stroke-width="2" fill="#ffd6f5"/><use xlink:href="#y" transform="matrix(1,0,0,1,2605,1880) translate(16.099999999999994 59.0875)"/><path d="M3020 1960c0 33.14-26.86 60-60 60s-60-26.86-60-60 26.86-60 60-60 60 26.86 60 60z" stroke="#1071e5" stroke-width="2" fill="#ffd6f5"/><use xlink:href="#z" transform="matrix(1,0,0,1,2905,1905) translate(9.074999999999996 48.775)"/><use xlink:href="#A" transform="matrix(1,0,0,1,2905,1905) translate(10.79999999999999 70.375)"/><path d="M3240 2110c0 33.14-26.86 60-60 60s-60-26.86-60-60 26.86-60 60-60 60 26.86 60 60z" stroke="#1071e5" stroke-width="2" fill="#ffd6f5"/><use xlink:href="#B" transform="matrix(1,0,0,1,3125,2055) translate(17.574999999999996 48.775)"/><use xlink:href="#A" transform="matrix(1,0,0,1,3125,2055) translate(10.79999999999999 70.375)"/><path d="M2480 1940c0 33.14-26.86 60-60 60s-60-26.86-60-60 26.86-60 60-60 60 26.86 60 60z" stroke="#1071e5" stroke-width="2" fill="#ffd6f5"/><use xlink:href="#p" transform="matrix(1,0,0,1,2365,1885) translate(18.574999999999996 59.0875)"/><use xlink:href="#q" transform="matrix(1,0,0,1,2365,1885) translate(73.475 59.0875)"/><path d="M3260 2580c0 33.14-26.86 60-60 60s-60-26.86-60-60 26.86-60 60-60 60 26.86 60 60z" stroke="#1071e5" stroke-width="2" fill="#ffd6f5"/><use xlink:href="#n" transform="matrix(1,0,0,1,3145,2525) translate(36.525 59.0875)"/><path d="M3300 2740c0 33.14-26.86 60-60 60s-60-26.86-60-60 26.86-60 60-60 60 26.86 60 60z" stroke="#1071e5" stroke-width="2" fill="#ffd6f5"/><use xlink:href="#C" transform="matrix(1,0,0,1,3185,2685) translate(11.574999999999996 59.0875)"/><path d="M3260 3020c0 33.14-26.86 60-60 60s-60-26.86-60-60 26.86-60 60-60 60 26.86 60 60z" stroke="#1071e5" stroke-width="2" fill="#ffd6f5"/><use xlink:href="#o" transform="matrix(1,0,0,1,3145,2965) translate(4.099999999999994 59.0875)"/><path d="M2620 3060c0 33.14-26.86 60-60 60s-60-26.86-60-60 26.86-60 60-60 60 26.86 60 60z" stroke="#1071e5" stroke-width="2" fill="#ffd6f5"/><use xlink:href="#D" transform="matrix(1,0,0,1,2505,3005) translate(36.529999999999994 38.4625)"/><use xlink:href="#E" transform="matrix(1,0,0,1,2505,3005) translate(6.724999999999994 60.0625)"/><use xlink:href="#F" transform="matrix(1,0,0,1,2505,3005) translate(20.929999999999993 81.66250000000001)"/><path d="M2960 3060c0 33.14-26.86 60-60 60s-60-26.86-60-60 26.86-60 60-60 60 26.86 60 60z" stroke="#1071e5" stroke-width="2" fill="#ffd6f5"/><use xlink:href="#v" transform="matrix(1,0,0,1,2845,3005) translate(23.049999999999997 59.0875)"/><path d="M1799 2310h-116.75a12 12 0 0 1-12-12v-126a12 12 0 0 0-12-12h-100.87" stroke="#3a414a" fill="none"/><path d="M1799.5 2310.47h-.5v-.94h.5z" stroke="#3a414a" stroke-width=".05" fill="#3a414a"/><path d="M1542.62 2160l14.26-4.64v9.28z" stroke="#3a414a" fill="#3a414a"/><path d="M1811 2239v-137a12 12 0 0 0-12-12h-167.46a12 12 0 0 1-12-12v-76.35a4.62 4.62 0 0 0-4.62-4.6" stroke="#3a414a" fill="none"/><path d="M1811.47 2239.5h-.94v-.5h.94z" stroke="#3a414a" stroke-width=".05" fill="#3a414a"/><path d="M1600.15 1997.04l14.27-4.64v9.27z" stroke="#3a414a" fill="#3a414a"/><path d="M1910 2239v-267a12 12 0 0 0-12-12h-60.62" stroke="#3a414a" fill="none"/><path d="M1910.47 2239.5h-.94v-.5h.94z" stroke="#3a414a" stroke-width=".05" fill="#3a414a"/><path d="M1822.62 1960l14.26-4.63v9.27z" stroke="#3a414a" fill="#3a414a"/><path d="M1799.78 2375.5h-111.4a7.75 7.75 0 0 1-7.74-7.75 7.75 7.75 0 0 0-7.75-7.75h-95.52" stroke="#3a414a" fill="none"/><path d="M1800.42 2375.86l.08.12h-.74v-.95h.32z" stroke="#3a414a" stroke-width=".05" fill="#3a414a"/><path d="M1562.62 2360l14.26-4.64v9.28z" stroke="#3a414a" fill="#3a414a"/><path d="M1868 2381v127a12 12 0 0 1-12 12h-258.6" stroke="#3a414a" fill="none"/><path d="M1868.47 2381h-.94v-.5h.94z" stroke="#3a414a" stroke-width=".05" fill="#3a414a"/><path d="M1582.62 2520l14.26-4.64v9.28z" stroke="#3a414a" fill="#3a414a"/><path d="M2740 2169a9 9 0 0 0-9-9h-299a12 12 0 0 1-12-12v-130.62" stroke="#3a414a" fill="none"/><path d="M2740.47 2169.5h-.94v-.5h.94z" stroke="#3a414a" stroke-width=".05" fill="#3a414a"/><path d="M2420 2002.62l4.64 14.26h-9.28z" stroke="#3a414a" fill="#3a414a"/><path d="M2830 2169v-78.8a12 12 0 0 0-12-12h-177.94a12 12 0 0 1-12-12v-62.9" stroke="#3a414a" fill="none"/><path d="M2830.47 2169.5h-.94v-.5h.94z" stroke="#3a414a" stroke-width=".05" fill="#3a414a"/><path d="M2628.06 1988.54l4.64 14.27h-9.27z" stroke="#3a414a" fill="#3a414a"/><path d="M2861 2240h14.1a12 12 0 0 0 12-12v-218.18a10.2 10.2 0 0 1 10.2-10.2" stroke="#3a414a" fill="none"/><path d="M2861 2240.47h-.5v-.94h.5z" stroke="#3a414a" stroke-width=".05" fill="#3a414a"/><path d="M2912.06 1999.6l-14.27 4.65v-9.27z" stroke="#3a414a" fill="#3a414a"/><path d="M3021 2730h73.75a5 5 0 0 1 5 5 5 5 0 0 0 5 5h57.86" stroke="#3a414a" fill="none"/><path d="M3021 2730.47h-.5v-.94h.5z" stroke="#3a414a" stroke-width=".05" fill="#3a414a"/><path d="M3177.38 2740l-14.26 4.64v-9.28z" stroke="#3a414a" fill="#3a414a"/><path d="M2994 2659v-67a12 12 0 0 1 12-12h116.6" stroke="#3a414a" fill="none"/><path d="M2994.47 2659.5h-.94v-.5h.94z" stroke="#3a414a" stroke-width=".05" fill="#3a414a"/><path d="M3137.38 2580l-14.26 4.64v-9.28z" stroke="#3a414a" fill="#3a414a"/><path d="M3020.07 2795.86h47.22a12 12 0 0 1 12 12V3008a12 12 0 0 0 12 12h31.3" stroke="#3a414a" fill="none"/><path d="M3020.1 2796.34h-.82l.3-.48.2-.47h.3z" stroke="#3a414a" stroke-width=".05" fill="#3a414a"/><path d="M3137.38 3020l-14.26 4.64v-9.28z" stroke="#3a414a" fill="#3a414a"/><path d="M2900 2801v181.6" stroke="#3a414a" fill="none"/><path d="M2900.47 2801h-.94v-.5h.94z" stroke="#3a414a" stroke-width=".05" fill="#3a414a"/><path d="M2900 2997.38l-4.64-14.26h9.28z" stroke="#3a414a" fill="#3a414a"/><path d="M2826 2801v86.75a12 12 0 0 1-12 12h-242a12 12 0 0 0-12 12v70.86" stroke="#3a414a" fill="none"/><path d="M2826.47 2801h-.94v-.5h.94z" stroke="#3a414a" stroke-width=".05" fill="#3a414a"/><path d="M2560 2997.38l-4.64-14.26h9.28z" stroke="#3a414a" fill="#3a414a"/><path d="M2553.6 2569.8a10.67 10.67 0 0 1 12.8 0l67.2 50.4a6 6 0 0 1 0 9.6l-67.2 50.4a10.67 10.67 0 0 1-12.8 0l-67.2-50.4a6 6 0 0 1 0-9.6z" stroke="#3a414a" fill="#ffdda6"/><use xlink:href="#k" transform="matrix(1,0,0,1,2485,2570) translate(35.555 59.0875)"/><use xlink:href="#G" transform="matrix(1,0,0,1,2485,2570) translate(77.505 59.0875)"/><path d="M2637 2625h59a12 12 0 0 1 12 12v81a12 12 0 0 0 12 12h43.12" stroke="#3a414a" fill="none"/><path d="M2637 2625.47h-.54l.04-.47-.04-.47h.55z" stroke="#3a414a" stroke-width=".05" fill="#3a414a"/><path d="M2777.88 2730l-14.26 4.64v-9.28z" stroke="#3a414a" fill="#3a414a"/><path d="M2483 2625h-66.42a12 12 0 0 0-12 12v121a12 12 0 0 1-12 12h-50.53" stroke="#3a414a" fill="none"/><path d="M2483.5 2625l.04.47h-.55v-.94h.54z" stroke="#3a414a" stroke-width=".05" fill="#3a414a"/><path d="M2327.3 2770l14.25-4.64v9.28z" stroke="#3a414a" fill="#3a414a"/><path d="M2560 2566.67v-80.84a12 12 0 0 0-12-12h-626a12 12 0 0 1-12-12v-64.95" stroke="#3a414a" fill="none"/><path d="M2560.47 2567.2l-.47-.03-.47.03v-.55h.94z" stroke="#3a414a" stroke-width=".05" fill="#3a414a"/><path d="M1910 2382.12l4.63 14.26h-9.27z" stroke="#3a414a" fill="#3a414a"/><path d="M3060 2440c0 33.14-26.86 60-60 60s-60-26.86-60-60 26.86-60 60-60 60 26.86 60 60z" stroke="#1071e5" stroke-width="2" fill="#ffd6f5"/><use xlink:href="#H" transform="matrix(1,0,0,1,2945,2385) translate(10.274999999999991 48.775)"/><use xlink:href="#I" transform="matrix(1,0,0,1,2945,2385) translate(61.824999999999996 48.775)"/><use xlink:href="#J" transform="matrix(1,0,0,1,2945,2385) translate(33.55 70.375)"/><path d="M2740 2311v117a12 12 0 0 0 12 12h170.6" stroke="#3a414a" fill="none"/><path d="M2740.47 2311h-.94v-.5h.94z" stroke="#3a414a" stroke-width=".05" fill="#3a414a"/><path d="M2937.38 2440l-14.26 4.64v-9.28z" stroke="#3a414a" fill="#3a414a"/><path d="M3220 2300c0 33.14-26.86 60-60 60s-60-26.86-60-60 26.86-60 60-60 60 26.86 60 60z" stroke="#1071e5" stroke-width="2" fill="#ffd6f5"/><use xlink:href="#K" transform="matrix(1,0,0,1,3105,2245) translate(-6.375000000000007 58.6)"/><path d="M2861 2284.67h116.75a12 12 0 0 0 12-12V2122a12 12 0 0 1 12-12h100.86" stroke="#3a414a" fill="none"/><path d="M2861 2285.14h-.5v-.95h.5z" stroke="#3a414a" stroke-width=".05" fill="#3a414a"/><path d="M3117.38 2110l-14.26 4.64v-9.28z" stroke="#3a414a" fill="#3a414a"/><path d="M2805.33 2311v27.5a12 12 0 0 0 12 12H3047a12 12 0 0 0 12-12V2312a12 12 0 0 1 12-12h11.6" stroke="#3a414a" fill="none"/><path d="M2805.8 2311h-.94v-.5h.95z" stroke="#3a414a" stroke-width=".05" fill="#3a414a"/><path d="M3097.38 2300l-14.26 4.64v-9.28z" stroke="#3a414a" fill="#3a414a"/><path d="M1640 2860c0 33.14-26.86 60-60 60s-60-26.86-60-60 26.86-60 60-60 60 26.86 60 60z" stroke="#1071e5" stroke-width="2" fill="#ffd6f5"/><use xlink:href="#L" transform="matrix(1,0,0,1,1525,2805) translate(30.049999999999997 48.775)"/><use xlink:href="#M" transform="matrix(1,0,0,1,1525,2805) translate(19.825000000000003 70.375)"/><use xlink:href="#N" transform="matrix(1,0,0,1,1525,2805) translate(80.17500000000001 70.375)"/><path d="M2080 3060c0 33.14-26.86 60-60 60s-60-26.86-60-60 26.86-60 60-60 60 26.86 60 60z" stroke="#1071e5" stroke-width="2" fill="#ffd6f5"/><use xlink:href="#O" transform="matrix(1,0,0,1,1965,3005) translate(24.53 38.4625)"/><use xlink:href="#P" transform="matrix(1,0,0,1,1965,3005) translate(30.049999999999997 60.0625)"/><use xlink:href="#A" transform="matrix(1,0,0,1,1965,3005) translate(10.804999999999987 81.66250000000001)"/><path d="M1740 3060c0 33.14-26.86 60-60 60s-60-26.86-60-60 26.86-60 60-60 60 26.86 60 60z" stroke="#1071e5" stroke-width="2" fill="#ffd6f5"/><use xlink:href="#Q" transform="matrix(1,0,0,1,1625,3005) translate(11.524999999999999 48.775)"/><use xlink:href="#R" transform="matrix(1,0,0,1,1625,3005) translate(30.525 70.375)"/><path d="M2300 3060c0 33.14-26.86 60-60 60s-60-26.86-60-60 26.86-60 60-60 60 26.86 60 60z" stroke="#1071e5" stroke-width="2" fill="#ffd6f5"/><g><use xlink:href="#n" transform="matrix(1,0,0,1,2185,3005) translate(36.525 59.0875)"/></g><path d="M2215.17 2841v66.75a12 12 0 0 0 12 12h.83a12 12 0 0 1 12 12v50.86" stroke="#3a414a" fill="none"/><path d="M2215.64 2841h-.95v-.5h.94z" stroke="#3a414a" stroke-width=".05" fill="#3a414a"/><path d="M2240 2997.38l-4.64-14.26h9.28z" stroke="#3a414a" fill="#3a414a"/><path d="M2150.67 2841v66.75a12 12 0 0 1-12 12H2032a12 12 0 0 0-12 12v50.86" stroke="#3a414a" fill="none"/><path d="M2151.14 2841h-.95v-.5h.94z" stroke="#3a414a" stroke-width=".05" fill="#3a414a"/><path d="M2020 2997.38l-4.63-14.26h9.27z" stroke="#3a414a" fill="#3a414a"/><path d="M2104.17 2770H1862a12 12 0 0 0-12 12v266a12 12 0 0 1-12 12h-80.62" stroke="#3a414a" fill="none"/><path d="M2104.67 2770.47h-.5v-.94h.5z" stroke="#3a414a" stroke-width=".05" fill="#3a414a"/><path d="M1742.62 3060l14.26-4.64v9.28z" stroke="#3a414a" fill="#3a414a"/><path d="M2111.1 2699.28v-27.5a12 12 0 0 0-12-12H1693a12 12 0 0 0-12 12V2848a12 12 0 0 1-12 12h-11.62" stroke="#3a414a" fill="none"/><path d="M2111.57 2699.67l-.95.23v-.63h.95z" stroke="#3a414a" stroke-width=".05" fill="#3a414a"/><path d="M1642.62 2860l14.26-4.64v9.28z" stroke="#3a414a" fill="#3a414a"/><path d="M2200 2080c0 33.14-26.86 60-60 60s-60-26.86-60-60 26.86-60 60-60 60 26.86 60 60z" stroke="#1071e5" stroke-width="2" fill="#ffd6f5"/><g><use xlink:href="#S" transform="matrix(1,0,0,1,2085,2025) translate(30.049999999999997 48.775)"/><use xlink:href="#T" transform="matrix(1,0,0,1,2085,2025) translate(24.099999999999998 70.375)"/></g><path d="M2060 1940c0 33.14-26.86 60-60 60s-60-26.86-60-60 26.86-60 60-60 60 26.86 60 60z" stroke="#1071e5" stroke-width="2" fill="#ffd6f5"/><g><use xlink:href="#U" transform="matrix(1,0,0,1,1945,1885) translate(15.549999999999997 48.775)"/><use xlink:href="#T" transform="matrix(1,0,0,1,1945,1885) translate(24.099999999999998 70.375)"/></g><path d="M2020.18 2244.4H2068a12 12 0 0 0 12-12v-59.6a12 12 0 0 1 12-12h55.23a4.62 4.62 0 0 0 4.62-4.62" stroke="#3a414a" fill="none"/><path d="M2020.2 2244.88h-.32l-.3-.74-.13-.2h.75z" stroke="#3a414a" stroke-width=".05" fill="#3a414a"/><path d="M2151.85 2141.4l4.64 14.28h-9.28z" stroke="#3a414a" fill="#3a414a"/><path d="M1970.67 2239v-106.75a12 12 0 0 1 12-12h5.33a12 12 0 0 0 12-12v-90.87" stroke="#3a414a" fill="none"/><path d="M1971.14 2239.5h-.95v-.5h.94z" stroke="#3a414a" stroke-width=".05" fill="#3a414a"/><path d="M2000 2002.62l4.63 14.26h-9.27z" stroke="#3a414a" fill="#3a414a"/><defs><path fill="#3a414a" d="M24 0v-248h195v40H76v63h132v40H76v65h150V0H24" id="V"/><path fill="#3a414a" d="M14-72v-43h91v43H14" id="W"/><path fill="#3a414a" d="M240-174c0 40-23 61-54 70L253 0h-59l-57-94H76V0H24v-248c93 4 217-23 216 74zM76-134c48-2 112 12 112-38 0-48-66-32-112-35v73" id="X"/><g id="a"><use transform="matrix(0.12407407407407395,0,0,0.12407407407407395,0,0)" xlink:href="#V"/><use transform="matrix(0.12407407407407395,0,0,0.12407407407407395,29.777777777777747,0)" xlink:href="#W"/><use transform="matrix(0.12407407407407395,0,0,0.12407407407407395,44.54259259259255,0)" xlink:href="#X"/><path fill="#3a414a" d="M-2.23 2.4h93.55v4.7H-2.23z"/></g><path fill="#3a414a" d="M24-248c120-7 223 5 221 122C244-46 201 0 124 0H24v-248zM76-40c74 7 117-18 117-86 0-67-45-88-117-82v168" id="Y"/><path fill="#3a414a" d="M24 0v-248h52V0H24" id="Z"/><path fill="#3a414a" d="M199 0l-22-63H83L61 0H9l90-248h61L250 0h-51zm-33-102l-36-108c-10 38-24 72-36 108h72" id="aa"/><path fill="#3a414a" d="M67-125c0 54 23 88 75 88 28 0 53-7 68-21v-34h-60v-39h108v91C232-14 192 4 140 4 58 4 20-42 15-125 8-236 126-280 215-234c19 10 29 26 37 47l-47 15c-11-23-29-39-63-39-53 1-75 33-75 86" id="ab"/><path fill="#3a414a" d="M230 0l2-204L168 0h-37L68-204 70 0H24v-248h70l56 185 57-185h69V0h-46" id="ac"/><g id="b"><use transform="matrix(0.12407407407407395,0,0,0.12407407407407395,0,0)" xlink:href="#Y"/><use transform="matrix(0.12407407407407395,0,0,0.12407407407407395,32.13518518518515,0)" xlink:href="#Z"/><use transform="matrix(0.12407407407407395,0,0,0.12407407407407395,44.54259259259254,0)" xlink:href="#aa"/><use transform="matrix(0.12407407407407395,0,0,0.12407407407407395,76.67777777777769,0)" xlink:href="#ab"/><use transform="matrix(0.12407407407407395,0,0,0.12407407407407395,111.4185185185184,0)" xlink:href="#X"/><use transform="matrix(0.12407407407407395,0,0,0.12407407407407395,143.55370370370355,0)" xlink:href="#aa"/><use transform="matrix(0.12407407407407395,0,0,0.12407407407407395,175.6888888888887,0)" xlink:href="#ac"/><path fill="#3a414a" d="M-2.23 2.4h229.66v4.7H-2.23z"/></g><path fill="#3a414a" d="M76-208v77h127v40H76V0H24v-248h183v40H76" id="ad"/><path fill="#3a414a" d="M140-251c80 0 125 45 125 126S219 4 139 4C58 4 15-44 15-125s44-126 125-126zm-1 214c52 0 73-35 73-88 0-50-21-86-72-86-52 0-73 35-73 86s22 88 72 88" id="ae"/><g id="c"><use transform="matrix(0.12407407407407395,0,0,0.12407407407407395,0,0)" xlink:href="#ad"/><use transform="matrix(0.12407407407407395,0,0,0.12407407407407395,27.172222222222196,0)" xlink:href="#ae"/><use transform="matrix(0.12407407407407395,0,0,0.12407407407407395,61.9129629629629,0)" xlink:href="#X"/><path fill="#3a414a" d="M-2.23 2.4H108.7v4.7H-2.24z"/></g><g id="d"><use transform="matrix(0.12407407407407395,0,0,0.12407407407407395,0,0)" xlink:href="#Y"/><use transform="matrix(0.12407407407407395,0,0,0.12407407407407395,32.13518518518515,0)" xlink:href="#V"/><use transform="matrix(0.12407407407407395,0,0,0.12407407407407395,61.912962962962894,0)" xlink:href="#ac"/><use transform="matrix(0.12407407407407395,0,0,0.12407407407407395,99.011111111111,0)" xlink:href="#ae"/><path fill="#3a414a" d="M-2.23 2.4H148.4v4.7H-2.23z"/></g><path fill="#3a414a" d="M67-125c0 53 21 87 73 88 37 1 54-22 65-47l45 17C233-25 199 4 140 4 58 4 20-42 15-125 8-235 124-281 211-232c18 10 29 29 36 50l-46 12c-8-25-30-41-62-41-52 0-71 34-72 86" id="af"/><path fill="#3a414a" d="M136-208V0H84v-208H4v-40h212v40h-80" id="ag"/><g id="e"><use transform="matrix(0.12407407407407395,0,0,0.12407407407407395,0,0)" xlink:href="#af"/><use transform="matrix(0.12407407407407395,0,0,0.12407407407407395,32.13518518518515,0)" xlink:href="#X"/><use transform="matrix(0.12407407407407395,0,0,0.12407407407407395,64.2703703703703,0)" xlink:href="#V"/><use transform="matrix(0.12407407407407395,0,0,0.12407407407407395,94.04814814814804,0)" xlink:href="#Y"/><use transform="matrix(0.12407407407407395,0,0,0.12407407407407395,126.1833333333332,0)" xlink:href="#Z"/><use transform="matrix(0.12407407407407395,0,0,0.12407407407407395,138.59074074074059,0)" xlink:href="#ag"/><path fill="#3a414a" d="M-2.23 2.4H180.4v4.7H-2.22z"/></g><path fill="#3a414a" d="M24-248c93 1 206-16 204 79-1 75-69 88-152 82V0H24v-248zm52 121c47 0 100 7 100-41 0-47-54-39-100-39v80" id="ah"/><g id="f"><use transform="matrix(0.12407407407407395,0,0,0.12407407407407395,0,0)" xlink:href="#aa"/><use transform="matrix(0.12407407407407395,0,0,0.12407407407407395,32.13518518518515,0)" xlink:href="#ah"/><use transform="matrix(0.12407407407407395,0,0,0.12407407407407395,61.912962962962894,0)" xlink:href="#ah"/><path fill="#3a414a" d="M-2.23 2.4h96.16v4.7H-2.23z"/></g><path fill="#3a414a" d="M182-130c37 4 62 22 62 59C244 23 116-4 24 0v-248c84 5 203-23 205 63 0 31-19 50-47 55zM76-148c40-3 101 13 101-30 0-44-60-28-101-31v61zm0 110c48-3 116 14 116-37 0-48-69-32-116-35v72" id="ai"/><path fill="#3a414a" d="M146-102V0H94v-102L6-248h54l60 105 60-105h54" id="aj"/><path fill="#3a414a" d="M35-132v-50h50v50H35zM35 0v-49h50V0H35" id="ak"/><g id="g"><use transform="matrix(0.12407407407407395,0,0,0.12407407407407395,0,0)" xlink:href="#ai"/><use transform="matrix(0.12407407407407395,0,0,0.12407407407407395,32.13518518518515,0)" xlink:href="#aj"/><use transform="matrix(0.12407407407407395,0,0,0.12407407407407395,58.5629629629629,0)" xlink:href="#ak"/><path fill="#3a414a" d="M-2.23 2.4h90.2v4.7h-90.2z"/></g><path fill="#3a414a" d="M147 0H94L2-248h55l64 206c17-72 42-137 63-206h54" id="al"/><g id="h"><use transform="matrix(0.12407407407407395,0,0,0.12407407407407395,0,0)" xlink:href="#al"/><use transform="matrix(0.12407407407407395,0,0,0.12407407407407395,29.777777777777747,0)" xlink:href="#Z"/><use transform="matrix(0.12407407407407395,0,0,0.12407407407407395,42.18518518518514,0)" xlink:href="#af"/><use transform="matrix(0.12407407407407395,0,0,0.12407407407407395,74.32037037037028,0)" xlink:href="#ag"/><use transform="matrix(0.12407407407407395,0,0,0.12407407407407395,100.62407407407397,0)" xlink:href="#ae"/><use transform="matrix(0.12407407407407395,0,0,0.12407407407407395,135.36481481481468,0)" xlink:href="#X"/><path fill="#3a414a" d="M-2.23 2.4h184.37v4.7H-2.23z"/></g><path fill="#3a414a" d="M176-78C186 10 51 31 16-35c-5-9-9-19-11-32l52-8c4 21 12 37 35 38 23 0 32-16 32-40v-130H75v-41h101v170" id="am"/><path fill="#3a414a" d="M175 0L67-191c6 58 2 128 3 191H24v-248h59L193-55c-6-58-2-129-3-193h46V0h-61" id="an"/><g id="i"><use transform="matrix(0.12407407407407395,0,0,0.12407407407407395,0,0)" xlink:href="#ae"/><use transform="matrix(0.12407407407407395,0,0,0.12407407407407395,34.740740740740705,0)" xlink:href="#am"/><use transform="matrix(0.12407407407407395,0,0,0.12407407407407395,59.55555555555549,0)" xlink:href="#ae"/><use transform="matrix(0.12407407407407395,0,0,0.12407407407407395,94.29629629629619,0)" xlink:href="#an"/><use transform="matrix(0.12407407407407395,0,0,0.12407407407407395,126.43148148148134,0)" xlink:href="#ab"/><path fill="#3a414a" d="M-2.23 2.4H163.4v4.7H-2.22z"/></g><path fill="#333" d="M232-93c-1 65-40 97-104 97C67 4 28-28 28-90v-158h33c8 89-33 224 67 224 102 0 64-133 71-224h33v155" id="ao"/><path fill="#333" d="M185-189c-5-48-123-54-124 2 14 75 158 14 163 119 3 78-121 87-175 55-17-10-28-26-33-46l33-7c5 56 141 63 141-1 0-78-155-14-162-118-5-82 145-84 179-34 5 7 8 16 11 25" id="ap"/><path fill="#333" d="M30 0v-248h187v28H63v79h144v27H63v87h162V0H30" id="aq"/><path fill="#333" d="M233-177c-1 41-23 64-60 70L243 0h-38l-65-103H63V0H30v-248c88 3 205-21 203 71zM63-129c60-2 137 13 137-47 0-61-80-42-137-45v92" id="ar"/><g id="j"><use transform="matrix(0.06172839506172839,0,0,0.06172839506172839,0,0)" xlink:href="#ao"/><use transform="matrix(0.06172839506172839,0,0,0.06172839506172839,15.987654320987653,0)" xlink:href="#ap"/><use transform="matrix(0.06172839506172839,0,0,0.06172839506172839,30.80246913580247,0)" xlink:href="#aq"/><use transform="matrix(0.06172839506172839,0,0,0.06172839506172839,45.61728395061728,0)" xlink:href="#ar"/></g><path fill="#3a414a" d="M197 0v-115H63V0H30v-248h33v105h134v-105h34V0h-34" id="as"/><path fill="#3a414a" d="M205 0l-28-72H64L36 0H1l101-248h38L239 0h-34zm-38-99l-47-123c-12 45-31 82-46 123h93" id="at"/><path fill="#3a414a" d="M185-189c-5-48-123-54-124 2 14 75 158 14 163 119 3 78-121 87-175 55-17-10-28-26-33-46l33-7c5 56 141 63 141-1 0-78-155-14-162-118-5-82 145-84 179-34 5 7 8 16 11 25" id="au"/><g id="k"><use transform="matrix(0.05,0,0,0.05,0,0)" xlink:href="#as"/><use transform="matrix(0.05,0,0,0.05,12.950000000000001,0)" xlink:href="#at"/><use transform="matrix(0.05,0,0,0.05,24.950000000000003,0)" xlink:href="#au"/></g><path fill="#3a414a" d="M33 0v-248h34V0H33" id="av"/><path fill="#3a414a" d="M30-248c118-7 216 8 213 122C240-48 200 0 122 0H30v-248zM63-27c89 8 146-16 146-99s-60-101-146-95v194" id="aw"/><g id="l"><use transform="matrix(0.05,0,0,0.05,0,0)" xlink:href="#av"/><use transform="matrix(0.05,0,0,0.05,5,0)" xlink:href="#aw"/></g><path fill="#333" d="M127-220V0H93v-220H8v-28h204v28h-85" id="ax"/><path fill="#333" d="M205 0l-28-72H64L36 0H1l101-248h38L239 0h-34zm-38-99l-47-123c-12 45-31 82-46 123h93" id="ay"/><path fill="#333" d="M190 0L58-211 59 0H30v-248h39L202-35l-2-213h31V0h-41" id="az"/><path fill="#333" d="M212-179c-10-28-35-45-73-45-59 0-87 40-87 99 0 60 29 101 89 101 43 0 62-24 78-52l27 14C228-24 195 4 139 4 59 4 22-46 18-125c-6-104 99-153 187-111 19 9 31 26 39 46" id="aA"/><path fill="#333" d="M33 0v-248h34V0H33" id="aB"/><path fill="#333" d="M140-251c81 0 123 46 123 126C263-46 219 4 140 4 59 4 17-45 17-125s42-126 123-126zm0 227c63 0 89-41 89-101s-29-99-89-99c-61 0-89 39-89 99S79-25 140-24" id="aC"/><g id="m"><use transform="matrix(0.06172839506172839,0,0,0.06172839506172839,0,0)" xlink:href="#ax"/><use transform="matrix(0.06172839506172839,0,0,0.06172839506172839,13.518518518518517,0)" xlink:href="#ar"/><use transform="matrix(0.06172839506172839,0,0,0.06172839506172839,29.50617283950617,0)" xlink:href="#ay"/><use transform="matrix(0.06172839506172839,0,0,0.06172839506172839,44.32098765432099,0)" xlink:href="#az"/><use transform="matrix(0.06172839506172839,0,0,0.06172839506172839,60.30864197530864,0)" xlink:href="#ap"/><use transform="matrix(0.06172839506172839,0,0,0.06172839506172839,75.12345679012346,0)" xlink:href="#ay"/><use transform="matrix(0.06172839506172839,0,0,0.06172839506172839,89.93827160493827,0)" xlink:href="#aA"/><use transform="matrix(0.06172839506172839,0,0,0.06172839506172839,105.92592592592592,0)" xlink:href="#ax"/><use transform="matrix(0.06172839506172839,0,0,0.06172839506172839,119.44444444444444,0)" xlink:href="#aB"/><use transform="matrix(0.06172839506172839,0,0,0.06172839506172839,125.61728395061728,0)" xlink:href="#aC"/><use transform="matrix(0.06172839506172839,0,0,0.06172839506172839,142.9012345679012,0)" xlink:href="#az"/><use transform="matrix(0.06172839506172839,0,0,0.06172839506172839,158.88888888888886,0)" xlink:href="#ap"/></g><path fill="#333" d="M160-131c35 5 61 23 61 61C221 17 115-2 30 0v-248c76 3 177-17 177 60 0 33-19 50-47 57zm-97-11c50-1 110 9 110-42 0-47-63-36-110-37v79zm0 115c55-2 124 14 124-45 0-56-70-42-124-44v89" id="aD"/><path fill="#333" d="M137 0h-34L2-248h35l83 218 83-218h36" id="aE"/><g id="n"><use transform="matrix(0.05,0,0,0.05,0,0)" xlink:href="#aD"/><use transform="matrix(0.05,0,0,0.05,12,0)" xlink:href="#aE"/><use transform="matrix(0.05,0,0,0.05,24,0)" xlink:href="#az"/></g><path fill="#333" d="M240 0l2-218c-23 76-54 145-80 218h-23L58-218 59 0H30v-248h44l77 211c21-75 51-140 76-211h43V0h-30" id="aF"/><g id="o"><use transform="matrix(0.05,0,0,0.05,0,0)" xlink:href="#ao"/><use transform="matrix(0.05,0,0,0.05,12.950000000000001,0)" xlink:href="#ap"/><use transform="matrix(0.05,0,0,0.05,24.950000000000003,0)" xlink:href="#aq"/><use transform="matrix(0.05,0,0,0.05,36.95,0)" xlink:href="#ar"/><use transform="matrix(0.05,0,0,0.05,49.900000000000006,0)" xlink:href="#az"/><use transform="matrix(0.05,0,0,0.05,62.85,0)" xlink:href="#ay"/><use transform="matrix(0.05,0,0,0.05,74.85000000000001,0)" xlink:href="#aF"/><use transform="matrix(0.05,0,0,0.05,89.80000000000001,0)" xlink:href="#aq"/></g><g id="p"><use transform="matrix(0.05,0,0,0.05,0,0)" xlink:href="#ao"/><use transform="matrix(0.05,0,0,0.05,12.950000000000001,0)" xlink:href="#ap"/><use transform="matrix(0.05,0,0,0.05,24.950000000000003,0)" xlink:href="#aq"/><use transform="matrix(0.05,0,0,0.05,36.95,0)" xlink:href="#ar"/></g><path fill="#333" d="M30-248c118-7 216 8 213 122C240-48 200 0 122 0H30v-248zM63-27c89 8 146-16 146-99s-60-101-146-95v194" id="aG"/><g id="q"><use transform="matrix(0.05,0,0,0.05,0,0)" xlink:href="#aB"/><use transform="matrix(0.05,0,0,0.05,5,0)" xlink:href="#aG"/></g><g id="r"><use transform="matrix(0.06172839506172839,0,0,0.06172839506172839,0,0)" xlink:href="#ay"/><use transform="matrix(0.06172839506172839,0,0,0.06172839506172839,14.814814814814813,0)" xlink:href="#aG"/><use transform="matrix(0.06172839506172839,0,0,0.06172839506172839,30.80246913580247,0)" xlink:href="#aF"/><use transform="matrix(0.06172839506172839,0,0,0.06172839506172839,49.25925925925925,0)" xlink:href="#aB"/><use transform="matrix(0.06172839506172839,0,0,0.06172839506172839,55.432098765432094,0)" xlink:href="#az"/></g><path fill="#333" d="M153-248C145-148 188 4 80 4 36 3 13-21 6-62l32-5c4 25 16 42 43 43 27 0 39-20 39-49v-147H72v-28h81" id="aH"/><g id="s"><use transform="matrix(0.06172839506172839,0,0,0.06172839506172839,0,0)" xlink:href="#ay"/><use transform="matrix(0.06172839506172839,0,0,0.06172839506172839,14.814814814814813,0)" xlink:href="#aG"/><use transform="matrix(0.06172839506172839,0,0,0.06172839506172839,30.80246913580247,0)" xlink:href="#aH"/><use transform="matrix(0.06172839506172839,0,0,0.06172839506172839,41.91358024691358,0)" xlink:href="#ao"/><use transform="matrix(0.06172839506172839,0,0,0.06172839506172839,57.901234567901234,0)" xlink:href="#ax"/><use transform="matrix(0.06172839506172839,0,0,0.06172839506172839,70.98765432098764,0)" xlink:href="#aC"/><use transform="matrix(0.06172839506172839,0,0,0.06172839506172839,88.2716049382716,0)" xlink:href="#ar"/></g><g id="t"><use transform="matrix(0.06172839506172839,0,0,0.06172839506172839,0,0)" xlink:href="#aD"/><use transform="matrix(0.06172839506172839,0,0,0.06172839506172839,14.814814814814813,0)" xlink:href="#aE"/><use transform="matrix(0.06172839506172839,0,0,0.06172839506172839,29.629629629629626,0)" xlink:href="#az"/></g><g id="u"><use transform="matrix(0.06172839506172839,0,0,0.06172839506172839,0,0)" xlink:href="#ap"/><use transform="matrix(0.06172839506172839,0,0,0.06172839506172839,14.814814814814813,0)" xlink:href="#aq"/><use transform="matrix(0.06172839506172839,0,0,0.06172839506172839,29.629629629629626,0)" xlink:href="#ar"/><use transform="matrix(0.06172839506172839,0,0,0.06172839506172839,45.18518518518518,0)" xlink:href="#aE"/><use transform="matrix(0.06172839506172839,0,0,0.06172839506172839,60,0)" xlink:href="#aB"/><use transform="matrix(0.06172839506172839,0,0,0.06172839506172839,66.17283950617283,0)" xlink:href="#aA"/><use transform="matrix(0.06172839506172839,0,0,0.06172839506172839,82.1604938271605,0)" xlink:href="#aq"/></g><path fill="#333" d="M30-248c87 1 191-15 191 75 0 78-77 80-158 76V0H30v-248zm33 125c57 0 124 11 124-50 0-59-68-47-124-48v98" id="aI"/><path fill="#333" d="M197 0v-115H63V0H30v-248h33v105h134v-105h34V0h-34" id="aJ"/><g id="v"><use transform="matrix(0.05,0,0,0.05,0,0)" xlink:href="#aI"/><use transform="matrix(0.05,0,0,0.05,12,0)" xlink:href="#aJ"/><use transform="matrix(0.05,0,0,0.05,24.950000000000003,0)" xlink:href="#aC"/><use transform="matrix(0.05,0,0,0.05,38.95,0)" xlink:href="#az"/><use transform="matrix(0.05,0,0,0.05,51.900000000000006,0)" xlink:href="#aq"/></g><g id="w"><use transform="matrix(0.05,0,0,0.05,0,0)" xlink:href="#ay"/><use transform="matrix(0.05,0,0,0.05,12,0)" xlink:href="#aA"/><use transform="matrix(0.05,0,0,0.05,24.950000000000003,0)" xlink:href="#aA"/><use transform="matrix(0.05,0,0,0.05,37.900000000000006,0)" xlink:href="#aC"/><use transform="matrix(0.05,0,0,0.05,51.900000000000006,0)" xlink:href="#ao"/><use transform="matrix(0.05,0,0,0.05,64.85000000000001,0)" xlink:href="#az"/><use transform="matrix(0.05,0,0,0.05,77.80000000000001,0)" xlink:href="#ax"/></g><g id="x"><use transform="matrix(0.05,0,0,0.05,0,0)" xlink:href="#az"/><use transform="matrix(0.05,0,0,0.05,12.950000000000001,0)" xlink:href="#ao"/><use transform="matrix(0.05,0,0,0.05,25.900000000000002,0)" xlink:href="#aF"/><use transform="matrix(0.05,0,0,0.05,40.85,0)" xlink:href="#aD"/><use transform="matrix(0.05,0,0,0.05,52.85,0)" xlink:href="#aq"/><use transform="matrix(0.05,0,0,0.05,64.85,0)" xlink:href="#ar"/></g><g id="y"><use transform="matrix(0.05,0,0,0.05,0,0)" xlink:href="#ay"/><use transform="matrix(0.05,0,0,0.05,12,0)" xlink:href="#aF"/><use transform="matrix(0.05,0,0,0.05,26.950000000000003,0)" xlink:href="#aC"/><use transform="matrix(0.05,0,0,0.05,40.95,0)" xlink:href="#ao"/><use transform="matrix(0.05,0,0,0.05,53.900000000000006,0)" xlink:href="#az"/><use transform="matrix(0.05,0,0,0.05,66.85000000000001,0)" xlink:href="#ax"/></g><g id="z"><use transform="matrix(0.05,0,0,0.05,0,0)" xlink:href="#ar"/><use transform="matrix(0.05,0,0,0.05,12.950000000000001,0)" xlink:href="#aq"/><use transform="matrix(0.05,0,0,0.05,24.950000000000003,0)" xlink:href="#aA"/><use transform="matrix(0.05,0,0,0.05,37.900000000000006,0)" xlink:href="#aB"/><use transform="matrix(0.05,0,0,0.05,42.900000000000006,0)" xlink:href="#aq"/><use transform="matrix(0.05,0,0,0.05,54.900000000000006,0)" xlink:href="#aE"/><use transform="matrix(0.05,0,0,0.05,66.9,0)" xlink:href="#aq"/><use transform="matrix(0.05,0,0,0.05,78.9,0)" xlink:href="#ar"/></g><g id="A"><use transform="matrix(0.05,0,0,0.05,0,0)" xlink:href="#ay"/><use transform="matrix(0.05,0,0,0.05,12,0)" xlink:href="#aA"/><use transform="matrix(0.05,0,0,0.05,24.950000000000003,0)" xlink:href="#aA"/><use transform="matrix(0.05,0,0,0.05,37.900000000000006,0)" xlink:href="#aC"/><use transform="matrix(0.05,0,0,0.05,51.900000000000006,0)" xlink:href="#ao"/><use transform="matrix(0.05,0,0,0.05,64.85000000000001,0)" xlink:href="#az"/><use transform="matrix(0.05,0,0,0.05,77.80000000000001,0)" xlink:href="#ax"/></g><g id="B"><use transform="matrix(0.05,0,0,0.05,0,0)" xlink:href="#ap"/><use transform="matrix(0.05,0,0,0.05,12,0)" xlink:href="#aq"/><use transform="matrix(0.05,0,0,0.05,24,0)" xlink:href="#az"/><use transform="matrix(0.05,0,0,0.05,36.95,0)" xlink:href="#aG"/><use transform="matrix(0.05,0,0,0.05,49.900000000000006,0)" xlink:href="#aq"/><use transform="matrix(0.05,0,0,0.05,61.900000000000006,0)" xlink:href="#ar"/></g><g id="C"><use transform="matrix(0.05,0,0,0.05,0,0)" xlink:href="#ay"/><use transform="matrix(0.05,0,0,0.05,12,0)" xlink:href="#aG"/><use transform="matrix(0.05,0,0,0.05,24.950000000000003,0)" xlink:href="#aG"/><use transform="matrix(0.05,0,0,0.05,37.900000000000006,0)" xlink:href="#ar"/><use transform="matrix(0.05,0,0,0.05,50.85000000000001,0)" xlink:href="#aq"/><use transform="matrix(0.05,0,0,0.05,62.85,0)" xlink:href="#ap"/><use transform="matrix(0.05,0,0,0.05,74.85000000000001,0)" xlink:href="#ap"/></g><g id="D"><use transform="matrix(0.05,0,0,0.05,0,0)" xlink:href="#aD"/><use transform="matrix(0.05,0,0,0.05,12,0)" xlink:href="#aE"/><use transform="matrix(0.05,0,0,0.05,24,0)" xlink:href="#az"/></g><path fill="#333" d="M30 0v-248h33v221h125V0H30" id="aK"/><path fill="#333" d="M194 0L95-120 63-95V0H30v-248h33v124l119-124h40L117-140 236 0h-42" id="aL"/><g id="E"><use transform="matrix(0.05,0,0,0.05,0,0)" xlink:href="#aD"/><use transform="matrix(0.05,0,0,0.05,12,0)" xlink:href="#aK"/><use transform="matrix(0.05,0,0,0.05,22,0)" xlink:href="#ay"/><use transform="matrix(0.05,0,0,0.05,34,0)" xlink:href="#aA"/><use transform="matrix(0.05,0,0,0.05,46.95,0)" xlink:href="#aL"/><use transform="matrix(0.05,0,0,0.05,58.95,0)" xlink:href="#aK"/><use transform="matrix(0.05,0,0,0.05,68.95,0)" xlink:href="#aB"/><use transform="matrix(0.05,0,0,0.05,73.95,0)" xlink:href="#ap"/><use transform="matrix(0.05,0,0,0.05,85.95,0)" xlink:href="#ax"/></g><g id="F"><use transform="matrix(0.05,0,0,0.05,0,0)" xlink:href="#ap"/><use transform="matrix(0.05,0,0,0.05,12,0)" xlink:href="#ax"/><use transform="matrix(0.05,0,0,0.05,21.6,0)" xlink:href="#ay"/><use transform="matrix(0.05,0,0,0.05,32.25,0)" xlink:href="#ax"/><use transform="matrix(0.05,0,0,0.05,43.2,0)" xlink:href="#ao"/><use transform="matrix(0.05,0,0,0.05,56.150000000000006,0)" xlink:href="#ap"/></g><path fill="#3a414a" d="M160-131c35 5 61 23 61 61C221 17 115-2 30 0v-248c76 3 177-17 177 60 0 33-19 50-47 57zm-97-11c50-1 110 9 110-42 0-47-63-36-110-37v79zm0 115c55-2 124 14 124-45 0-56-70-42-124-44v89" id="aM"/><path fill="#3a414a" d="M137 0h-34L2-248h35l83 218 83-218h36" id="aN"/><path fill="#3a414a" d="M190 0L58-211 59 0H30v-248h39L202-35l-2-213h31V0h-41" id="aO"/><g id="G"><use transform="matrix(0.05,0,0,0.05,0,0)" xlink:href="#aM"/><use transform="matrix(0.05,0,0,0.05,12,0)" xlink:href="#aN"/><use transform="matrix(0.05,0,0,0.05,24,0)" xlink:href="#aO"/></g><g id="H"><use transform="matrix(0.05,0,0,0.05,0,0)" xlink:href="#aG"/><use transform="matrix(0.05,0,0,0.05,12.950000000000001,0)" xlink:href="#ay"/><use transform="matrix(0.05,0,0,0.05,23.6,0)" xlink:href="#ax"/><use transform="matrix(0.05,0,0,0.05,34.550000000000004,0)" xlink:href="#aq"/></g><g id="I"><use transform="matrix(0.05,0,0,0.05,0,0)" xlink:href="#ay"/><use transform="matrix(0.05,0,0,0.05,12,0)" xlink:href="#az"/><use transform="matrix(0.05,0,0,0.05,24.950000000000003,0)" xlink:href="#aG"/></g><g id="J"><use transform="matrix(0.05,0,0,0.05,0,0)" xlink:href="#ax"/><use transform="matrix(0.05,0,0,0.05,10.950000000000001,0)" xlink:href="#aB"/><use transform="matrix(0.05,0,0,0.05,15.950000000000001,0)" xlink:href="#aF"/><use transform="matrix(0.05,0,0,0.05,30.900000000000002,0)" xlink:href="#aq"/></g><g id="K"><use transform="matrix(0.05,0,0,0.05,0,0)" xlink:href="#aG"/><use transform="matrix(0.05,0,0,0.05,12.950000000000001,0)" xlink:href="#aq"/><use transform="matrix(0.05,0,0,0.05,24.950000000000003,0)" xlink:href="#ap"/><use transform="matrix(0.05,0,0,0.05,36.95,0)" xlink:href="#aA"/><use transform="matrix(0.05,0,0,0.05,49.900000000000006,0)" xlink:href="#ar"/><use transform="matrix(0.05,0,0,0.05,62.85,0)" xlink:href="#aB"/><use transform="matrix(0.05,0,0,0.05,67.85000000000001,0)" xlink:href="#aI"/><use transform="matrix(0.05,0,0,0.05,79.85000000000001,0)" xlink:href="#ax"/><use transform="matrix(0.05,0,0,0.05,90.80000000000001,0)" xlink:href="#aB"/><use transform="matrix(0.05,0,0,0.05,95.80000000000001,0)" xlink:href="#aC"/><use transform="matrix(0.05,0,0,0.05,109.80000000000001,0)" xlink:href="#az"/></g><g id="L"><use transform="matrix(0.05,0,0,0.05,0,0)" xlink:href="#ao"/><use transform="matrix(0.05,0,0,0.05,12.950000000000001,0)" xlink:href="#ap"/><use transform="matrix(0.05,0,0,0.05,24.950000000000003,0)" xlink:href="#aq"/><use transform="matrix(0.05,0,0,0.05,36.95,0)" xlink:href="#ar"/></g><g id="M"><use transform="matrix(0.05,0,0,0.05,0,0)" xlink:href="#aK"/><use transform="matrix(0.05,0,0,0.05,10,0)" xlink:href="#aq"/><use transform="matrix(0.05,0,0,0.05,22,0)" xlink:href="#aE"/><use transform="matrix(0.05,0,0,0.05,34,0)" xlink:href="#aq"/><use transform="matrix(0.05,0,0,0.05,46,0)" xlink:href="#aK"/></g><path fill="#333" d="M27 0v-27h64v-190l-56 39v-29l58-41h29v221h61V0H27" id="aP"/><use transform="matrix(0.05,0,0,0.05,0,0)" xlink:href="#aP" id="N"/><g id="O"><use transform="matrix(0.05,0,0,0.05,0,0)" xlink:href="#aD"/><use transform="matrix(0.05,0,0,0.05,12,0)" xlink:href="#aK"/><use transform="matrix(0.05,0,0,0.05,22,0)" xlink:href="#aC"/><use transform="matrix(0.05,0,0,0.05,36,0)" xlink:href="#aA"/><use transform="matrix(0.05,0,0,0.05,48.95,0)" xlink:href="#aL"/></g><g id="P"><use transform="matrix(0.05,0,0,0.05,0,0)" xlink:href="#ao"/><use transform="matrix(0.05,0,0,0.05,12.950000000000001,0)" xlink:href="#ap"/><use transform="matrix(0.05,0,0,0.05,24.950000000000003,0)" xlink:href="#aq"/><use transform="matrix(0.05,0,0,0.05,36.95,0)" xlink:href="#ar"/></g><g id="Q"><use transform="matrix(0.05,0,0,0.05,0,0)" xlink:href="#ay"/><use transform="matrix(0.05,0,0,0.05,12,0)" xlink:href="#aI"/><use transform="matrix(0.05,0,0,0.05,24,0)" xlink:href="#aI"/><use transform="matrix(0.05,0,0,0.05,36,0)" xlink:href="#ar"/><use transform="matrix(0.05,0,0,0.05,48.95,0)" xlink:href="#aC"/><use transform="matrix(0.05,0,0,0.05,62.95,0)" xlink:href="#aE"/><use transform="matrix(0.05,0,0,0.05,74.95,0)" xlink:href="#aq"/></g><g id="R"><use transform="matrix(0.05,0,0,0.05,0,0)" xlink:href="#aK"/><use transform="matrix(0.05,0,0,0.05,10,0)" xlink:href="#aC"/><use transform="matrix(0.05,0,0,0.05,24,0)" xlink:href="#ay"/><use transform="matrix(0.05,0,0,0.05,36,0)" xlink:href="#az"/></g><g id="S"><use transform="matrix(0.05,0,0,0.05,0,0)" xlink:href="#ap"/><use transform="matrix(0.05,0,0,0.05,12,0)" xlink:href="#aq"/><use transform="matrix(0.05,0,0,0.05,24,0)" xlink:href="#az"/><use transform="matrix(0.05,0,0,0.05,36.95,0)" xlink:href="#aG"/></g><path fill="#333" d="M63-220v92h138v28H63V0H30v-248h175v28H63" id="aQ"/><g id="T"><use transform="matrix(0.05,0,0,0.05,0,0)" xlink:href="#aQ"/><use transform="matrix(0.05,0,0,0.05,10.950000000000001,0)" xlink:href="#ao"/><use transform="matrix(0.05,0,0,0.05,23.900000000000002,0)" xlink:href="#az"/><use transform="matrix(0.05,0,0,0.05,36.85,0)" xlink:href="#aG"/><use transform="matrix(0.05,0,0,0.05,49.800000000000004,0)" xlink:href="#ap"/></g><g id="U"><use transform="matrix(0.05,0,0,0.05,0,0)" xlink:href="#ar"/><use transform="matrix(0.05,0,0,0.05,12.950000000000001,0)" xlink:href="#aq"/><use transform="matrix(0.05,0,0,0.05,24.950000000000003,0)" xlink:href="#aA"/><use transform="matrix(0.05,0,0,0.05,37.900000000000006,0)" xlink:href="#aB"/><use transform="matrix(0.05,0,0,0.05,42.900000000000006,0)" xlink:href="#aq"/><use transform="matrix(0.05,0,0,0.05,54.900000000000006,0)" xlink:href="#aE"/><use transform="matrix(0.05,0,0,0.05,66.9,0)" xlink:href="#aq"/></g></defs></g></svg>