<svg xmlns="http://www.w3.org/2000/svg" xmlns:xlink="http://www.w3.org/1999/xlink" xmlns:lucid="lucid" width="1559.58" height="1416.5"><g transform="translate(-1379.5 120)" lucid:page-tab-id="m-5o7ONTd-nK"><path d="M1000-500h2000v2000H1000z" fill="#fff"/><path d="M1661 160h77a5 5 0 0 0 5-5v-20a5 5 0 0 1 5-5h61.13" stroke="#333" fill="none"/><path d="M1661 160.47h-.5v-.94h.5z" stroke="#333" stroke-width=".05" fill="#333"/><path d="M1823.9 130l-14.27 4.63v-9.27z" stroke="#333" fill="#333"/><path d="M2360 333.35v37.83a5 5 0 0 0 5 5h86.93a5 5 0 0 1 5 5v21.94" stroke="#333" fill="none"/><path d="M2360.47 333.37h-.94v-.52h.94z" stroke="#333" stroke-width=".05" fill="#333"/><path d="M2456.93 417.88l-4.63-14.26h9.27z" stroke="#333" fill="#333"/><path d="M2376.93 428a8 8 0 0 1 8-8h144a8 8 0 0 1 8 8v112c-26.72-20.04-43.36-20.04-53.44-20.04-16 0-37.3 20.04-53.3 20.04-9.9 0-26.7 0-53.27-20.04z" stroke="#3a414a" fill="#b8f5ed"/><use xlink:href="#a" transform="matrix(1,0,0,1,2382.494844535597,425.561) translate(34.438271604938265 35.39202777777778)"/><use xlink:href="#b" transform="matrix(1,0,0,1,2382.494844535597,425.561) translate(47.339506172839506 62.05869444444445)"/><path d="M1500 108a8 8 0 0 1 8-8h144a8 8 0 0 1 8 8v104a8 8 0 0 1-8 8h-144a8 8 0 0 1-8-8z" stroke="#3a414a" fill="#cfe4ff"/><use xlink:href="#c" transform="matrix(1,0,0,1,1505.561,105.561) translate(46.16666666666667 31.704527777777777)"/><use xlink:href="#d" transform="matrix(1,0,0,1,1505.561,105.561) translate(27.030864197530857 58.37119444444445)"/><use xlink:href="#e" transform="matrix(1,0,0,1,1505.561,105.561) translate(43.6358024691358 85.03786111111111)"/><path d="M1648 280c17.67 0 32 17.9 32 40s-14.33 40-32 40h-96c-17.67 0-32-17.9-32-40s14.33-40 32-40z" stroke="#3a414a" fill="#b8f5ed"/><use xlink:href="#f" transform="matrix(1,0,0,1,1525.561,285.561) translate(47.37037037037037 38.73577777777778)"/><path d="M2280 220.35a8 8 0 0 1 8-8h144a8 8 0 0 1 8 8v104a8 8 0 0 1-8 8h-144a8 8 0 0 1-8-8z" stroke="#3a414a" fill="#b8f5ed"/><path d="M2429 197.35h22c2.2 0 4 1.8 4 4v22c0 2.2-1.8 4-4 4h-22c-2.2 0-4-1.8-4-4v-22c0-2.2 1.8-4 4-4z" fill="#282c33"/><path d="M2451 212.35c0 6.08-4.93 11-11 11s-11-4.92-11-11c0-6.07 4.93-11 11-11s11 4.93 11 11z" fill="#fff"/><use xlink:href="#g" transform="matrix(1,0,0,1,2285.561,217.91346855652233) translate(24.530864197530857 58.95452777777778)"/><path d="M1876.74 1052.63a8.57 8.57 0 0 1 11.7 0l90.88 84.9a7.47 7.47 0 0 1 0 10.9l-90.9 84.9a8.57 8.57 0 0 1-11.68 0l-90.9-84.9a7.47 7.47 0 0 1 0-10.9z" stroke="#1071e5" stroke-width="2" fill="#f7f4e4"/><use xlink:href="#h" transform="matrix(1,0,0,1,1785.561,1052.7346917169423) translate(56.32598765432098 83.70452777777777)"/><use xlink:href="#i" transform="matrix(1,0,0,1,1785.561,1052.7346917169423) translate(55.12228395061727 110.37119444444446)"/><path d="M1440 828a8 8 0 0 1 8-8h144a8 8 0 0 1 8 8v112c-26.72-20.04-43.36-20.04-53.44-20.04-16 0-37.28 20.04-53.28 20.04-9.92 0-26.72 0-53.28-20.04z" stroke="#3a414a" fill="#dedeff"/><use xlink:href="#j" transform="matrix(1,0,0,1,1445.561,825.561) translate(30.919753086419757 49.29827777777778)"/><use xlink:href="#k" transform="matrix(1,0,0,1,1445.561,825.561) translate(72.89506172839506 49.29827777777778)"/><path d="M1540 1181v27.5a12 12 0 0 0 12 12h178.47a12 12 0 0 0 12-12v-53.52a12 12 0 0 1 12-12h11.62" stroke="#333" fill="none"/><path d="M1540.47 1181h-.94v-.5h.94z" stroke="#333" stroke-width=".05" fill="#333"/><path d="M1780.85 1142.98l-14.26 4.63v-9.26z" stroke="#333" fill="#333"/><path d="M1520 930.82v54.1a10 10 0 0 0 10 10 10 10 0 0 1 10 10v38.2" stroke="#333" fill="none"/><path d="M1520.47 930.84h-.94v-.28l.94-.47z" stroke="#333" stroke-width=".05" fill="#333"/><path d="M1540 1057.88l-4.63-14.27 9.27.02z" stroke="#333" fill="#333"/><path d="M2448 1160c17.67 0 32 17.9 32 40s-14.33 40-32 40h-96c-17.67 0-32-17.9-32-40s14.33-40 32-40z" stroke="#3a414a" fill="#b8f5ed"/><path d="M2498 1160c0 9.94-8.06 18-18 18s-18-8.06-18-18 8.06-18 18-18 18 8.06 18 18z" fill="#2db539"/><path d="M2473.37 1157.52l-2.74 2.9 6.72 6.32 12.02-11.28-2.74-2.92-9.28 8.72-3.98-3.74z" fill="#fff"/><use xlink:href="#l" transform="matrix(1,0,0,1,2325.561,1165.561) translate(33.6358024691358 25.798277777777777)"/><use xlink:href="#m" transform="matrix(1,0,0,1,2325.561,1165.561) translate(22.67901234567901 52.46494444444445)"/><path d="M2056.87 1125.38l-10.87 3.26-28.35 7.22-34.65 7.3-.1-.46 34.64-7.28 28.34-7.22 11-3.3zm156.05-104.2l-2.45 4.64-2.68 4.63-2.96 4.63-3.23 4.64-3.55 4.67-3.9 4.7-4.3 4.76-4.76 4.84-5.26 4.92-5.85 5.03-6.53 5.15-7.3 5.3-8.24 5.44-9.33 5.63-10.65 5.83-12.23 6.04-14.17 6.28-2.73 1.08v-.5l2.56-1 14.15-6.26 12.2-6.04 10.64-5.82 9.32-5.62 8.2-5.44 7.3-5.28 6.5-5.14 5.83-5 5.25-4.92 4.74-4.83 4.3-4.75 3.88-4.7 3.54-4.64 3.23-4.63 2.94-4.6 2.68-4.63 2.43-4.63 1.28-2.7h.5zm-67.94-294.42l-.13.1-.38.3-.37.3-.33.33-.32.3-.3.35-.3.34-.25.34-.26.36-.23.38-.22.4-.2.4-.2.42-.2.45-.18.47-.16.5-.16.54-.13.57-.12.62-.1.67-.07.72-.06.8-.02.88.02.98.07 1.1.13 1.26.22 1.45.32 1.7.47 2 .7 2.44.98 3.05 1.47 3.97 2.32 5.5 4.05 8.6 24.57 45.45 17.2 32.77 9.17 19.48 6.47 15.42 4.85 13.06L2217 907l2.83 10.2 2.16 9.26 1.6 8.5 1.15 7.84.76 7.33.44 6.87.13 6.5-.14 6.17-.38 5.9-.6 5.65-.8 5.45-1.02 5.27-1.18 5h-.47l1.2-5.1 1.02-5.25.8-5.44.6-5.63.38-5.88.14-6.15-.13-6.48-.44-6.86-.76-7.3-1.14-7.84-1.6-8.47-2.17-9.24-2.84-10.18-3.7-11.4-4.84-13.05-6.46-15.4-9.16-19.48-17.2-32.76-24.6-45.47-4.04-8.6-2.33-5.54-1.48-4-1-3.06-.68-2.45-.47-2.03-.33-1.72-.2-1.46-.14-1.27-.07-1.13-.03-1 .03-.9.05-.82.1-.74.1-.7.1-.62.15-.6.16-.55.17-.53.2-.5.18-.45.2-.45.24-.42.22-.4.25-.4.26-.38.28-.36.3-.35.32-.34.33-.33.35-.33.38-.32.4-.32.14-.1z" stroke="#333" stroke-width=".05" fill="#333"/><path d="M1983 1143.14l-.32.07.02-.22-.02-.23.24-.05z" fill="#333"/><path stroke="#333" stroke-width=".05" fill="#333"/><path d="M2158.7 723.17l-12.73 7.9-2.22-9z" fill="#333"/><path d="M2159.42 723l-13.6 8.43-2.36-9.6zm-13.3 7.73l11.9-7.38-13.97-1.02z" stroke="#333" stroke-width=".05" fill="#333"/><use xlink:href="#n" transform="matrix(1,0,0,1,2175.0732304891217,996.9426718949431) translate(0 14.222222222222223)"/><use xlink:href="#o" transform="matrix(1,0,0,1,2175.0732304891217,996.9426718949431) translate(38.41975308641976 14.222222222222223)"/><use xlink:href="#p" transform="matrix(1,0,0,1,2056.871220361959,1106.9697828268474) translate(0.004999999999999005 14.4)"/><path d="M2288 682.98c17.67 0 32 17.9 32 40s-14.33 40-32 40h-96c-17.67 0-32-17.9-32-40s14.33-40 32-40z" stroke="#3a414a" fill="#b8f5ed"/><path d="M2338 682.98c0 9.94-8.06 18-18 18s-18-8.06-18-18 8.06-18 18-18 18 8.06 18 18z" fill="#c90c0c"/><path d="M2315.5 675.64l4.5 4.46 4.5-4.46 2.84 2.85-4.46 4.48 4.46 4.5-2.85 2.84-4.5-4.46-4.5 4.46-2.84-2.85 4.46-4.5-4.46-4.48z" fill="#fff"/><use xlink:href="#q" transform="matrix(1,0,0,1,2165.561,688.540546901012) translate(56.59876543209876 25.798277777777777)"/><use xlink:href="#r" transform="matrix(1,0,0,1,2165.561,688.540546901012) translate(22.74074074074073 52.46494444444445)"/><path d="M1900 670.98a8 8 0 0 1 8-8h144a8 8 0 0 1 8 8v104a8 8 0 0 1-8 8h-144a8 8 0 0 1-8-8z" stroke="#3a414a" fill="#dedeff"/><path d="M2078 662.98c0 9.94-8.06 18-18 18s-18-8.06-18-18 8.06-18 18-18 18 8.06 18 18z" fill="#2db539"/><path d="M2053.37 660.5l-2.74 2.9 6.72 6.32 12.02-11.28-2.74-2.92-9.28 8.72-3.98-3.74z" fill="#fff"/><use xlink:href="#s" transform="matrix(1,0,0,1,1905.561,668.540546901012) translate(34.376543209876544 45.32952777777778)"/><use xlink:href="#t" transform="matrix(1,0,0,1,1905.561,668.540546901012) translate(28.23456790123456 71.99619444444446)"/><path d="M1600 279v-17.25a12 12 0 0 0-12-12h-116.5a12 12 0 0 1-12-12V172a12 12 0 0 1 12-12h11.62" stroke="#333" fill="none"/><path d="M1600.47 279.5h-.94v-.5h.94z" stroke="#333" stroke-width=".05" fill="#333"/><path d="M1497.88 160l-14.26 4.63v-9.26z" stroke="#333" fill="#333"/><path d="M1919.07 245.8l.14 1.83.43 1.76.7 1.66.94 1.54 1.17 1.38 1.38 1.17 1.54.95 1.67.7 1.76.4 1.8.15h118.5v.95h-118.53l-1.93-.15-1.9-.46-1.8-.76-1.68-1.02-1.5-1.27-1.26-1.5-1.03-1.66-.74-1.82-.46-1.9-.15-1.93v-27.52h.95zm433.36-74.27l1.9.46 1.82.74 1.67 1.02 1.48 1.27 1.28 1.5 1.02 1.66.75 1.8.45 1.9.16 1.93v11.64h-.95v-11.6l-.14-1.82-.42-1.76-.7-1.68-.93-1.54-1.17-1.38-1.37-1.17-1.55-.94-1.66-.7-1.76-.43-1.82-.14h-191.38l-1.82.14-1.76.42-1.67.7-1.55.93-1.37 1.17-1.16 1.38-.95 1.54-.7 1.67-.42 1.75-.15 1.82v61.98l-.15 1.93-.46 1.9-.74 1.8-1.03 1.68-1.27 1.5-1.5 1.26-1.66 1.02-1.8.75-1.9.45-1.94.15H2087v-.95h48.04l1.82-.14 1.76-.4 1.67-.7 1.53-.95 1.38-1.17 1.18-1.38.95-1.54.7-1.67.4-1.77.15-1.82v-61.97l.16-1.93.45-1.9.74-1.8 1.03-1.68 1.27-1.5 1.5-1.26 1.65-1.02 1.8-.75 1.9-.47 1.94-.15h191.46z" stroke="#333" stroke-width=".05" fill="#333"/><path d="M1918.6 217.83l.47-.04v.54h-.95v-.55z" fill="#333"/><path stroke="#333" stroke-width=".05" fill="#333"/><path d="M2362.48 210.23l-4.63-14.26h9.27z" fill="#333"/><path d="M2362.48 211.77l-5.3-16.28h10.6zm-3.98-15.33l3.98 12.26 3.98-12.26z" stroke="#333" stroke-width=".05" fill="#333"/><use xlink:href="#u" transform="matrix(1,0,0,1,2049.1033952139046,247.02780772633167) translate(0.004999999999999005 14.4)"/><path d="M1912.77 45.5a8.5 8.5 0 0 1 11.64 0l83.9 79a7.54 7.54 0 0 1 0 11l-83.9 79a8.5 8.5 0 0 1-11.63 0l-83.88-79a7.54 7.54 0 0 1 0-11z" stroke="#1071e5" stroke-width="2" fill="#f7f4e4"/><use xlink:href="#v" transform="matrix(1,0,0,1,1828.066155464403,45) translate(30.529999999999994 88.775)"/><path d="M2680 101.4a8 8 0 0 1 8-8h144a8 8 0 0 1 8 8v104a8 8 0 0 1-8 8h-144a8 8 0 0 1-8-8z" stroke="#3a414a" fill="#cfe4ff"/><path d="M2858 93.4c0 9.95-8.06 18-18 18s-18-8.05-18-18c0-9.93 8.06-18 18-18s18 8.07 18 18z" fill="#c90c0c"/><path d="M2835.5 86.07l4.5 4.46 4.5-4.46 2.84 2.85-4.46 4.5 4.46 4.5-2.85 2.84-4.5-4.47-4.5 4.46-2.84-2.85 4.46-4.5-4.46-4.48z" fill="#fff"/><use xlink:href="#w" transform="matrix(1,0,0,1,2685.561,98.97428670463509) translate(45.66666666666667 46.95799999999999)"/><use xlink:href="#x" transform="matrix(1,0,0,1,2685.561,98.97428670463509) translate(26.25000000000001 70.95799999999998)"/><path d="M2012.17 130a3.67 3.67 0 0 1 3.66 3.67v4.74a8.4 8.4 0 0 0 8.42 8.43h123.3a12 12 0 0 0 12-12v-16.36a12 12 0 0 1 12-12h455.95a12 12 0 0 1 12 12v28.47a12 12 0 0 0 12 12h11.62" stroke="#3a414a" fill="none"/><path d="M2012.18 130.47h-.55l.04-.47-.04-.47h.55z" stroke="#3a414a" stroke-width=".05" fill="#3a414a"/><path d="M2677.88 158.94l-14.26 4.63v-9.27z" stroke="#3a414a" fill="#3a414a"/><use xlink:href="#p" transform="matrix(1,0,0,1,2243.025,80.87410485274788) translate(0.004999999999999005 14.4)"/><path d="M2053.87 406.8a8 8 0 0 1 8-8h144a8 8 0 0 1 8 8v111.98c-26.72-20.03-43.36-20.03-53.44-20.03-16 0-37.28 20.03-53.28 20.03-9.92 0-26.72 0-53.28-20.03z" stroke="#3a414a" fill="#b8f5ed"/><use xlink:href="#l" transform="matrix(1,0,0,1,2059.428689071194,404.3464020850816) translate(33.6358024691358 35.39202777777778)"/><use xlink:href="#b" transform="matrix(1,0,0,1,2059.428689071194,404.3464020850816) translate(47.339506172839506 62.05869444444445)"/><path d="M2279 272.35h-133.13a12 12 0 0 0-12 12v97.55" stroke="#3a414a" fill="none"/><path d="M2279.5 272.83h-.5v-.95h.5z" stroke="#3a414a" stroke-width=".05" fill="#3a414a"/><path d="M2133.87 396.67l-4.64-14.27h9.27z" stroke="#3a414a" fill="#3a414a"/><path d="M1460 1068a8 8 0 0 1 8-8h144a8 8 0 0 1 8 8v104a8 8 0 0 1-8 8h-144a8 8 0 0 1-8-8z" stroke="#3a414a" fill="#ffd6f5"/><use xlink:href="#y" transform="matrix(1,0,0,1,1465.561,1065.5601113378382) translate(17.802469135802465 31.704527777777777)"/><use xlink:href="#z" transform="matrix(1,0,0,1,1465.561,1065.5601113378382) translate(79.46913580246914 31.704527777777777)"/><use xlink:href="#A" transform="matrix(1,0,0,1,1465.561,1065.5601113378382) translate(19.685185185185187 58.37119444444445)"/><use xlink:href="#B" transform="matrix(1,0,0,1,1465.561,1065.5601113378382) translate(89.9320987654321 58.37119444444445)"/><use xlink:href="#C" transform="matrix(1,0,0,1,1465.561,1065.5601113378382) translate(56.59876543209876 85.03786111111111)"/><path d="M1740 783.98v5.5a12 12 0 0 1-12 12h-213.7a1.63 1.63 0 0 0-1.63 1.64" stroke="#3a414a" fill="none"/><path d="M1740.47 784h-.94v-.52h.94z" stroke="#3a414a" stroke-width=".05" fill="#3a414a"/><path d="M1512.67 817.88l-4.64-14.26h9.27z" stroke="#3a414a" fill="#3a414a"/><path d="M2700 388a8 8 0 0 1 8-8h144a8 8 0 0 1 8 8v112c-26.72-20.04-43.36-20.04-53.44-20.04-16 0-37.28 20.04-53.28 20.04-9.92 0-26.72 0-53.28-20.04z" stroke="#3a414a" fill="#b8f5ed"/><use xlink:href="#D" transform="matrix(1,0,0,1,2705.561,385.561) translate(50.70370370370371 37.465111111111106)"/><use xlink:href="#E" transform="matrix(1,0,0,1,2705.561,385.561) translate(11.413580246913579 64.13177777777778)"/><path d="M2441 272.35h157.25a12 12 0 0 1 12 12V298a12 12 0 0 0 12 12H2768a12 12 0 0 1 12 12v41.12" stroke="#3a414a" fill="none"/><path d="M2441 272.83h-.5v-.95h.5z" stroke="#3a414a" stroke-width=".05" fill="#3a414a"/><path d="M2780 377.88l-4.64-14.26h9.28z" stroke="#3a414a" fill="#3a414a"/><path d="M1528 470c17.67 0 32 17.9 32 40s-14.33 40-32 40h-96c-17.67 0-32-17.9-32-40s14.33-40 32-40z" stroke="#3a414a" fill="#fff7a1"/><use xlink:href="#F" transform="matrix(1,0,0,1,1405.561,475.561) translate(51.074074074074076 38.73577777777778)"/><path d="M1660 670.98a8 8 0 0 1 8-8h144a8 8 0 0 1 8 8v104a8 8 0 0 1-8 8h-144a8 8 0 0 1-8-8z" stroke="#3a414a" fill="#ffd6f5"/><use xlink:href="#G" transform="matrix(1,0,0,1,1665.561,668.540546901012) translate(34.5 31.704527777777777)"/><use xlink:href="#H" transform="matrix(1,0,0,1,1665.561,668.540546901012) translate(33.82098765432099 58.37119444444445)"/><use xlink:href="#I" transform="matrix(1,0,0,1,1665.561,668.540546901012) translate(32.52469135802468 85.03786111111111)"/><use xlink:href="#J" transform="matrix(1,0,0,1,1665.561,668.540546901012) translate(80.67283950617283 85.03786111111111)"/><path d="M1478.67 551v43.5a12 12 0 0 0 12 12H1728a12 12 0 0 1 12 12v27.6" stroke="#3a414a" fill="none"/><path d="M1479.14 551h-.95v-.5h.94z" stroke="#3a414a" stroke-width=".05" fill="#3a414a"/><path d="M1740 660.86l-4.63-14.26h9.27z" stroke="#3a414a" fill="#3a414a"/><path d="M1980 661.98v-27.5a12 12 0 0 1 12-12h36a12 12 0 0 0 12-12V562a12 12 0 0 0-12-12h-316a12 12 0 0 1-12-12V393.5a12 12 0 0 0-12-12h-83.38a4.62 4.62 0 0 1-4.62-4.62" stroke="#3a414a" fill="none"/><path d="M1980.47 662.48h-.94v-.5h.94z" stroke="#3a414a" stroke-width=".05" fill="#3a414a"/><path d="M1600 362.12l4.63 14.26h-9.27z" stroke="#3a414a" fill="#3a414a"/><path d="M1883.06 1048.83h-.95V973.6h.96zm97.4-144.4l-.14 1.92-.45 1.9-.75 1.82-1.03 1.67-1.28 1.5-1.5 1.26-1.66 1.02-1.8.75-1.9.46-1.94.15h-73.42l-1.82.14-1.76.42-1.67.7-1.54.94-1.36 1.17-1.18 1.38-.94 1.54-.7 1.67-.42 1.76-.14 1.82V952h-.95v-23.62l.16-1.93.46-1.9.75-1.8 1.02-1.68 1.26-1.5 1.5-1.26 1.66-1 1.8-.76 1.9-.46 1.95-.15h73.4l1.83-.15 1.76-.42 1.67-.7 1.54-.93 1.38-1.18 1.17-1.37.95-1.55.7-1.67.4-1.75.16-1.82V799.86h.94z" stroke="#3a414a" stroke-width=".05" fill="#3a414a"/><path d="M1883.06 1049.36l-.48-.03-.47.03v-.55h.96z" fill="#3a414a"/><path stroke="#3a414a" stroke-width=".05" fill="#3a414a"/><path d="M1984.63 799.36h-9.27l4.64-14.26z" fill="#3a414a"/><path d="M1985.3 799.84h-10.6l5.3-16.28zm-9.28-.95h7.96l-3.98-12.26z" stroke="#3a414a" stroke-width=".05" fill="#3a414a"/><use xlink:href="#u" transform="matrix(1,0,0,1,1863.633890380812,952.0016132684402) translate(0.004999999999999005 14.4)"/><path d="M2720 548a8 8 0 0 1 8-8h144a8 8 0 0 1 8 8v104a8 8 0 0 1-8 8h-144a8 8 0 0 1-8-8z" stroke="#3a414a" fill="#cfe4ff"/><use xlink:href="#K" transform="matrix(1,0,0,1,2725.561,545.561) translate(38.172839506172835 31.704527777777777)"/><use xlink:href="#L" transform="matrix(1,0,0,1,2725.561,545.561) translate(16.969135802469136 58.37119444444445)"/><use xlink:href="#M" transform="matrix(1,0,0,1,2725.561,545.561) translate(37.5246913580247 85.03786111111111)"/><path d="M2850.58 1158.8c17.68 0 32 17.9 32 40 0 22.08-14.32 40-32 40h-96c-17.67 0-32-17.92-32-40 0-22.1 14.33-40 32-40z" stroke="#3a414a" fill="#b8f5ed"/><path d="M2900.58 1158.8c0 9.93-8.05 18-18 18-9.94 0-18-8.07-18-18 0-9.96 8.06-18 18-18 9.95 0 18 8.04 18 18z" fill="#2db539"/><path d="M2875.95 1156.3l-2.73 2.92 6.7 6.3 12.03-11.28-2.73-2.9-9.3 8.7-3.97-3.74z" fill="#fff"/><use xlink:href="#s" transform="matrix(1,0,0,1,2728.1448903808123,1164.3464020850815) translate(34.376543209876544 25.798277777777777)"/><use xlink:href="#N" transform="matrix(1,0,0,1,2728.1448903808123,1164.3464020850815) translate(35.05555555555554 52.46494444444445)"/><path d="M2796.74 796.83a8.57 8.57 0 0 1 11.7 0l90.88 84.88a7.47 7.47 0 0 1 0 10.93l-90.9 84.9a8.57 8.57 0 0 1-11.68 0l-90.9-84.9a7.47 7.47 0 0 1 0-10.92z" stroke="#1071e5" stroke-width="2" fill="#f7f4e4"/><use xlink:href="#O" transform="matrix(1,0,0,1,2705.561,796.9288365328728) translate(55.12228395061728 66.73577777777777)"/><use xlink:href="#P" transform="matrix(1,0,0,1,2705.561,796.9288365328728) translate(20.64814814814815 93.40244444444446)"/><use xlink:href="#Q" transform="matrix(1,0,0,1,2705.561,796.9288365328728) translate(104.59876543209876 93.40244444444446)"/><use xlink:href="#R" transform="matrix(1,0,0,1,2705.561,796.9288365328728) translate(126.75925925925925 93.40244444444446)"/><use xlink:href="#S" transform="matrix(1,0,0,1,2705.561,796.9288365328728) translate(90.83216049382716 120.06911111111111)"/><path d="M2396.74 796.83a8.57 8.57 0 0 1 11.7 0l90.88 84.88a7.47 7.47 0 0 1 0 10.93l-90.9 84.9a8.57 8.57 0 0 1-11.68 0l-90.9-84.9a7.47 7.47 0 0 1 0-10.92z" stroke="#1071e5" stroke-width="2" fill="#f7f4e4"/><use xlink:href="#T" transform="matrix(1,0,0,1,2305.561,796.9288365328728) translate(66.47722222222222 53.6455)"/><use xlink:href="#U" transform="matrix(1,0,0,1,2305.561,796.9288365328728) translate(98.6438888888889 53.6455)"/><use xlink:href="#V" transform="matrix(1,0,0,1,2305.561,796.9288365328728) translate(115.86611111111111 53.6455)"/><use xlink:href="#W" transform="matrix(1,0,0,1,2305.561,796.9288365328728) translate(51.28895061728396 77.6455)"/><use xlink:href="#X" transform="matrix(1,0,0,1,2305.561,796.9288365328728) translate(116.05438271604939 77.6455)"/><use xlink:href="#Y" transform="matrix(1,0,0,1,2305.561,796.9288365328728) translate(20.366111111111117 101.6455)"/><use xlink:href="#Z" transform="matrix(1,0,0,1,2305.561,796.9288365328728) translate(102.42166666666667 101.6455)"/><use xlink:href="#aa" transform="matrix(1,0,0,1,2305.561,796.9288365328728) translate(68.14388888888888 125.6455)"/><use xlink:href="#ab" transform="matrix(1,0,0,1,2305.561,796.9288365328728) translate(114.755 125.6455)"/><path d="M2780 490.82v14.1a10 10 0 0 0 10 10h1.8a8.2 8.2 0 0 1 8.2 8.2" stroke="#3a414a" fill="none"/><path d="M2780.47 490.84h-.94v-.28l.94-.48z" stroke="#3a414a" stroke-width=".05" fill="#3a414a"/><path d="M2800 537.88l-4.64-14.26h9.28z" stroke="#3a414a" fill="#3a414a"/><path d="M2456.93 530.82v8.5a12 12 0 0 0 12 12H2508a12 12 0 0 1 12 12v50.34a12 12 0 0 0 12 12h135.5a12 12 0 0 1 12 12V678a12 12 0 0 0 12 12h99.08a12 12 0 0 1 12 12v75.14" stroke="#3a414a" fill="none"/><path d="M2457.4 530.84h-.94v-.28l.95-.47z" stroke="#3a414a" stroke-width=".05" fill="#3a414a"/><path d="M2802.58 791.9l-4.63-14.26h9.27z" stroke="#3a414a" fill="#3a414a"/><path d="M2133.87 509.6a1.72 1.72 0 0 0 1.7 1.72h4.9a6.6 6.6 0 0 1 6.6 6.6V568a12 12 0 0 0 12 12H2368a12 12 0 0 1 12 12v58.48a12 12 0 0 0 12 12h56a12 12 0 0 1 12 12v67.04a12 12 0 0 1-12 12h-33.42a12 12 0 0 0-12 12v11.62" stroke="#3a414a" fill="none"/><path d="M2134.34 509.62h-.95v-.27l.94-.48z" stroke="#3a414a" stroke-width=".05" fill="#3a414a"/><path d="M2402.58 791.9l-4.63-14.26h9.27z" stroke="#3a414a" fill="#3a414a"/><path d="M2402.97 1069.42l-.1.25-.15.24-.18.22-.2.18-.25.15-.26.1-.27.07-.4.03-.13.03-.12.05-.1.07-.1.08-.1.1-.05.1-.05.12-.03.13-.03.14v71.65h-.94V1071.18l.08-.27.12-.25.14-.23.18-.22.2-.17.25-.15.24-.1.28-.07.4-.02.12-.03.12-.05.1-.07.1-.08.1-.1.06-.1v-.03h1zm.1-21.8h-.96v-66.3h.96z" stroke="#3a414a" stroke-width=".05" fill="#3a414a"/><path d="M2402.58 980.83l.48-.04v.54h-.95v-.55z" fill="#3a414a"/><path stroke="#3a414a" stroke-width=".05" fill="#3a414a"/><path d="M2400 1157.88l-4.64-14.26h9.28z" fill="#3a414a"/><path d="M2400 1159.42l-5.3-16.28h10.6zm-3.98-15.33l3.98 12.25 3.98-12.26z" stroke="#3a414a" stroke-width=".05" fill="#3a414a"/><g><use xlink:href="#u" transform="matrix(1,0,0,1,2383.6338903808123,1047.619771873263) translate(0.004999999999999005 14.4)"/></g><path d="M2803.06 1141.9h-.95v-83.1h.96zm0-104.7h-.95v-55.87h.96z" stroke="#3a414a" stroke-width=".05" fill="#3a414a"/><path d="M2802.58 980.83l.48-.04v.54h-.95v-.55z" fill="#3a414a"/><path stroke="#3a414a" stroke-width=".05" fill="#3a414a"/><path d="M2802.58 1156.67l-4.63-14.27h9.27z" fill="#3a414a"/><path d="M2802.58 1158.2l-5.28-16.27h10.57zm-3.98-15.32l3.98 12.25 4-12.25z" stroke="#3a414a" stroke-width=".05" fill="#3a414a"/><g><use xlink:href="#u" transform="matrix(1,0,0,1,2783.6338903808123,1037.2000000000003) translate(0.004999999999999005 14.4)"/></g><path d="M2668 711.37c17.67 0 32 17.9 32 40s-14.33 40-32 40h-96c-17.67 0-32-17.9-32-40s14.33-40 32-40z" stroke="#3a414a" fill="#b8f5ed"/><path d="M2718 711.37c0 9.94-8.06 18-18 18s-18-8.06-18-18 8.06-18 18-18 18 8.06 18 18z" fill="#c90c0c"/><path d="M2695.5 704.02l4.5 4.47 4.5-4.48 2.84 2.86-4.46 4.5 4.46 4.48-2.85 2.85-4.5-4.45-4.5 4.46-2.84-2.84 4.46-4.5-4.46-4.5z" fill="#fff"/><g><use xlink:href="#ac" transform="matrix(1,0,0,1,2545.561,716.9288365328728) translate(20.240740740740737 25.798277777777777)"/><use xlink:href="#ad" transform="matrix(1,0,0,1,2545.561,716.9288365328728) translate(48.01851851851852 52.46494444444445)"/></g><path d="M2519.06 887.65h-15.86v-.95h15.86zm101.4-12.46l-.14 1.92-.45 1.9-.75 1.82-1.03 1.67-1.28 1.5-1.5 1.27-1.66 1.02-1.8.74-1.9.46-1.94.15h-43v-.95h42.96l1.82-.15 1.76-.42 1.67-.7 1.54-.93 1.38-1.18 1.17-1.37.95-1.55.7-1.66.4-1.76.16-1.83v-66.9h.94z" stroke="#3a414a" stroke-width=".05" fill="#3a414a"/><path d="M2503.2 887.65h-.54l.04-.48-.04-.47h.55z" fill="#3a414a"/><path stroke="#3a414a" stroke-width=".05" fill="#3a414a"/><path d="M2624.64 807.75h-9.28l4.64-14.26z" fill="#3a414a"/><path d="M2625.3 808.23h-10.6l5.3-16.28zm-9.28-.95h7.96l-3.98-12.26z" stroke="#3a414a" stroke-width=".05" fill="#3a414a"/><g><use xlink:href="#p" transform="matrix(1,0,0,1,2519.0558998802267,876.3736917169424) translate(0.004999999999999005 14.4)"/></g><path d="M2701.97 886.7v.95h-17.35v-.95zm-52.34-11.55l.1 1.22h-.96l-.1-1.18v-66.95h.96z" stroke="#3a414a" stroke-width=".05" fill="#3a414a"/><path d="M2702.47 887.17l.04.48h-.54v-.95h.55z" fill="#3a414a"/><path stroke="#3a414a" stroke-width=".05" fill="#3a414a"/><path d="M2653.8 807.75h-9.28l4.63-14.26z" fill="#3a414a"/><path d="M2654.44 808.23h-10.58l5.3-16.28zm-9.27-.95h7.97l-4-12.26z" stroke="#3a414a" stroke-width=".05" fill="#3a414a"/><g><use xlink:href="#ae" transform="matrix(1,0,0,1,2640.716666666667,876.3736917169424) translate(0.004999999999999005 14.4)"/></g><path d="M1620-92a8 8 0 0 1 8-8h984a8 8 0 0 1 8 8v84a8 8 0 0 1-8 8h-984a8 8 0 0 1-8-8z" fill="none"/><g><use xlink:href="#af" transform="matrix(1,0,0,1,1620,-100) translate(117.6064814814817 56.71111111111111)"/><use xlink:href="#ag" transform="matrix(1,0,0,1,1620,-100) translate(213.51944444444462 56.71111111111111)"/><use xlink:href="#ah" transform="matrix(1,0,0,1,1620,-100) translate(321.3632716049384 56.71111111111111)"/><use xlink:href="#ai" transform="matrix(1,0,0,1,1620,-100) translate(490.5391975308642 56.71111111111111)"/><use xlink:href="#aj" transform="matrix(1,0,0,1,1620,-100) translate(570.5132716049383 56.71111111111111)"/><use xlink:href="#ak" transform="matrix(1,0,0,1,1620,-100) translate(680.3145061728394 56.71111111111111)"/><use xlink:href="#al" transform="matrix(1,0,0,1,1620,-100) translate(814.1638888888888 56.71111111111111)"/></g><defs><path fill="#333" d="M233-177c-1 41-23 64-60 70L243 0h-38l-65-103H63V0H30v-248c88 3 205-21 203 71zM63-129c60-2 137 13 137-47 0-61-80-42-137-45v92" id="am"/><path fill="#333" d="M100-194c63 0 86 42 84 106H49c0 40 14 67 53 68 26 1 43-12 49-29l28 8c-11 28-37 45-77 45C44 4 14-33 15-96c1-61 26-98 85-98zm52 81c6-60-76-77-97-28-3 7-6 17-6 28h103" id="an"/><path fill="#333" d="M96-169c-40 0-48 33-48 73s9 75 48 75c24 0 41-14 43-38l32 2c-6 37-31 61-74 61-59 0-76-41-82-99-10-93 101-131 147-64 4 7 5 14 7 22l-32 3c-4-21-16-35-41-35" id="ao"/><path fill="#333" d="M24-231v-30h32v30H24zM24 0v-190h32V0H24" id="ap"/><path fill="#333" d="M108 0H70L1-190h34L89-25l56-165h34" id="aq"/><g id="a"><use transform="matrix(0.06172839506172839,0,0,0.06172839506172839,0,0)" xlink:href="#am"/><use transform="matrix(0.06172839506172839,0,0,0.06172839506172839,15.987654320987653,0)" xlink:href="#an"/><use transform="matrix(0.06172839506172839,0,0,0.06172839506172839,28.333333333333332,0)" xlink:href="#ao"/><use transform="matrix(0.06172839506172839,0,0,0.06172839506172839,39.44444444444444,0)" xlink:href="#ap"/><use transform="matrix(0.06172839506172839,0,0,0.06172839506172839,44.32098765432099,0)" xlink:href="#an"/><use transform="matrix(0.06172839506172839,0,0,0.06172839506172839,56.666666666666664,0)" xlink:href="#aq"/><use transform="matrix(0.06172839506172839,0,0,0.06172839506172839,67.77777777777777,0)" xlink:href="#an"/></g><path fill="#333" d="M101-234c-31-9-42 10-38 44h38v23H63V0H32v-167H5v-23h27c-7-52 17-82 69-68v24" id="ar"/><path fill="#333" d="M84 4C-5 8 30-112 23-190h32v120c0 31 7 50 39 49 72-2 45-101 50-169h31l1 190h-30c-1-10 1-25-2-33-11 22-28 36-60 37" id="as"/><path fill="#333" d="M117-194c89-4 53 116 60 194h-32v-121c0-31-8-49-39-48C34-167 62-67 57 0H25l-1-190h30c1 10-1 24 2 32 11-22 29-35 61-36" id="at"/><path fill="#333" d="M85-194c31 0 48 13 60 33l-1-100h32l1 261h-30c-2-10 0-23-3-31C134-8 116 4 85 4 32 4 16-35 15-94c0-66 23-100 70-100zm9 24c-40 0-46 34-46 75 0 40 6 74 45 74 42 0 51-32 51-76 0-42-9-74-50-73" id="au"/><path fill="#333" d="M135-143c-3-34-86-38-87 0 15 53 115 12 119 90S17 21 10-45l28-5c4 36 97 45 98 0-10-56-113-15-118-90-4-57 82-63 122-42 12 7 21 19 24 35" id="av"/><g id="b"><use transform="matrix(0.06172839506172839,0,0,0.06172839506172839,0,0)" xlink:href="#ar"/><use transform="matrix(0.06172839506172839,0,0,0.06172839506172839,6.172839506172839,0)" xlink:href="#as"/><use transform="matrix(0.06172839506172839,0,0,0.06172839506172839,18.51851851851852,0)" xlink:href="#at"/><use transform="matrix(0.06172839506172839,0,0,0.06172839506172839,30.864197530864196,0)" xlink:href="#au"/><use transform="matrix(0.06172839506172839,0,0,0.06172839506172839,43.20987654320987,0)" xlink:href="#av"/></g><path fill="#333" d="M24 0v-248h195v40H76v63h132v40H76v65h150V0H24" id="aw"/><path fill="#333" d="M135-194c87-1 58 113 63 194h-50c-7-57 23-157-34-157-59 0-34 97-39 157H25l-1-190h47c2 12-1 28 3 38 12-26 28-41 61-42" id="ax"/><path fill="#333" d="M115-3C79 11 28 4 28-45v-112H4v-33h27l15-45h31v45h36v33H77v99c-1 23 16 31 38 25v30" id="ay"/><path fill="#333" d="M185-48c-13 30-37 53-82 52C43 2 14-33 14-96s30-98 90-98c62 0 83 45 84 108H66c0 31 8 55 39 56 18 0 30-7 34-22zm-45-69c5-46-57-63-70-21-2 6-4 13-4 21h74" id="az"/><path fill="#333" d="M135-150c-39-12-60 13-60 57V0H25l-1-190h47c2 13-1 29 3 40 6-28 27-53 61-41v41" id="aA"/><g id="c"><use transform="matrix(0.06172839506172839,0,0,0.06172839506172839,0,0)" xlink:href="#aw"/><use transform="matrix(0.06172839506172839,0,0,0.06172839506172839,14.814814814814813,0)" xlink:href="#ax"/><use transform="matrix(0.06172839506172839,0,0,0.06172839506172839,28.33333333333333,0)" xlink:href="#ay"/><use transform="matrix(0.06172839506172839,0,0,0.06172839506172839,35.679012345679006,0)" xlink:href="#az"/><use transform="matrix(0.06172839506172839,0,0,0.06172839506172839,48.02469135802468,0)" xlink:href="#aA"/></g><path fill="#333" d="M115-194c55 1 70 41 70 98S169 2 115 4C84 4 66-9 55-30l1 105H24l-1-265h31l2 30c10-21 28-34 59-34zm-8 174c40 0 45-34 45-75s-6-73-45-74c-42 0-51 32-51 76 0 43 10 73 51 73" id="aB"/><path fill="#333" d="M141-36C126-15 110 5 73 4 37 3 15-17 15-53c-1-64 63-63 125-63 3-35-9-54-41-54-24 1-41 7-42 31l-33-3c5-37 33-52 76-52 45 0 72 20 72 64v82c-1 20 7 32 28 27v20c-31 9-61-2-59-35zM48-53c0 20 12 33 32 33 41-3 63-29 60-74-43 2-92-5-92 41" id="aC"/><path fill="#333" d="M206 0h-36l-40-164L89 0H53L-1-190h32L70-26l43-164h34l41 164 42-164h31" id="aD"/><path fill="#333" d="M100-194c62-1 85 37 85 99 1 63-27 99-86 99S16-35 15-95c0-66 28-99 85-99zM99-20c44 1 53-31 53-75 0-43-8-75-51-75s-53 32-53 75 10 74 51 75" id="aE"/><path fill="#333" d="M114-163C36-179 61-72 57 0H25l-1-190h30c1 12-1 29 2 39 6-27 23-49 58-41v29" id="aF"/><g id="d"><use transform="matrix(0.06172839506172839,0,0,0.06172839506172839,0,0)" xlink:href="#aB"/><use transform="matrix(0.06172839506172839,0,0,0.06172839506172839,12.345679012345679,0)" xlink:href="#aC"/><use transform="matrix(0.06172839506172839,0,0,0.06172839506172839,24.691358024691358,0)" xlink:href="#av"/><use transform="matrix(0.06172839506172839,0,0,0.06172839506172839,35.80246913580247,0)" xlink:href="#av"/><use transform="matrix(0.06172839506172839,0,0,0.06172839506172839,46.91358024691358,0)" xlink:href="#aD"/><use transform="matrix(0.06172839506172839,0,0,0.06172839506172839,62.901234567901234,0)" xlink:href="#aE"/><use transform="matrix(0.06172839506172839,0,0,0.06172839506172839,75.24691358024691,0)" xlink:href="#aF"/><use transform="matrix(0.06172839506172839,0,0,0.06172839506172839,82.5925925925926,0)" xlink:href="#au"/></g><path fill="#333" d="M106-169C34-169 62-67 57 0H25v-261h32l-1 103c12-21 28-36 61-36 89 0 53 116 60 194h-32v-121c2-32-8-49-39-48" id="aG"/><g id="e"><use transform="matrix(0.06172839506172839,0,0,0.06172839506172839,0,0)" xlink:href="#aB"/><use transform="matrix(0.06172839506172839,0,0,0.06172839506172839,12.345679012345679,0)" xlink:href="#aG"/><use transform="matrix(0.06172839506172839,0,0,0.06172839506172839,24.691358024691358,0)" xlink:href="#aE"/><use transform="matrix(0.06172839506172839,0,0,0.06172839506172839,37.03703703703704,0)" xlink:href="#at"/><use transform="matrix(0.06172839506172839,0,0,0.06172839506172839,49.382716049382715,0)" xlink:href="#an"/></g><path fill="#333" d="M30 0v-248h33v221h125V0H30" id="aH"/><path fill="#333" d="M177-190C167-65 218 103 67 71c-23-6-38-20-44-43l32-5c15 47 100 32 89-28v-30C133-14 115 1 83 1 29 1 15-40 15-95c0-56 16-97 71-98 29-1 48 16 59 35 1-10 0-23 2-32h30zM94-22c36 0 50-32 50-73 0-42-14-75-50-75-39 0-46 34-46 75s6 73 46 73" id="aI"/><g id="f"><use transform="matrix(0.06172839506172839,0,0,0.06172839506172839,0,0)" xlink:href="#aH"/><use transform="matrix(0.06172839506172839,0,0,0.06172839506172839,12.345679012345679,0)" xlink:href="#aE"/><use transform="matrix(0.06172839506172839,0,0,0.06172839506172839,24.691358024691358,0)" xlink:href="#aI"/><use transform="matrix(0.06172839506172839,0,0,0.06172839506172839,37.03703703703704,0)" xlink:href="#ap"/><use transform="matrix(0.06172839506172839,0,0,0.06172839506172839,41.91358024691358,0)" xlink:href="#at"/></g><path fill="#333" d="M16-82v-28h88v28H16" id="aJ"/><path fill="#333" d="M33 0v-248h34V0H33" id="aK"/><g id="g"><use transform="matrix(0.06172839506172839,0,0,0.06172839506172839,0,0)" xlink:href="#aH"/><use transform="matrix(0.06172839506172839,0,0,0.06172839506172839,12.345679012345679,0)" xlink:href="#aE"/><use transform="matrix(0.06172839506172839,0,0,0.06172839506172839,24.691358024691358,0)" xlink:href="#aI"/><use transform="matrix(0.06172839506172839,0,0,0.06172839506172839,37.03703703703704,0)" xlink:href="#aI"/><use transform="matrix(0.06172839506172839,0,0,0.06172839506172839,49.382716049382715,0)" xlink:href="#an"/><use transform="matrix(0.06172839506172839,0,0,0.06172839506172839,61.72839506172839,0)" xlink:href="#au"/><use transform="matrix(0.06172839506172839,0,0,0.06172839506172839,74.07407407407408,0)" xlink:href="#aJ"/><use transform="matrix(0.06172839506172839,0,0,0.06172839506172839,81.41975308641976,0)" xlink:href="#aK"/><use transform="matrix(0.06172839506172839,0,0,0.06172839506172839,87.5925925925926,0)" xlink:href="#at"/></g><path fill="#333" d="M205 0l-28-72H64L36 0H1l101-248h38L239 0h-34zm-38-99l-47-123c-12 45-31 82-46 123h93" id="aL"/><path fill="#333" d="M24-231v-30h32v30H24zM-9 49c24 4 33-6 33-30v-209h32V24c2 40-23 58-65 49V49" id="aM"/><path fill="#333" d="M59-47c-2 24 18 29 38 22v24C64 9 27 4 27-40v-127H5v-23h24l9-43h21v43h35v23H59v120" id="aN"/><g id="h"><use transform="matrix(0.06172839506172839,0,0,0.06172839506172839,0,0)" xlink:href="#aL"/><use transform="matrix(0.06172839506172839,0,0,0.06172839506172839,14.814814814814813,0)" xlink:href="#au"/><use transform="matrix(0.06172839506172839,0,0,0.06172839506172839,27.160493827160494,0)" xlink:href="#aM"/><use transform="matrix(0.06172839506172839,0,0,0.06172839506172839,32.03703703703704,0)" xlink:href="#as"/><use transform="matrix(0.06172839506172839,0,0,0.06172839506172839,44.382716049382715,0)" xlink:href="#ao"/><use transform="matrix(0.06172839506172839,0,0,0.06172839506172839,55.49382716049382,0)" xlink:href="#aN"/><use transform="matrix(0.06172839506172839,0,0,0.06172839506172839,61.666666666666664,0)" xlink:href="#aE"/><use transform="matrix(0.06172839506172839,0,0,0.06172839506172839,74.01234567901234,0)" xlink:href="#aF"/></g><path fill="#333" d="M103-251c84 0 111 97 45 133-19 10-37 24-39 52H78c0-63 77-55 77-114 0-30-21-42-52-43-32 0-53 17-56 46l-32-2c7-45 34-72 88-72zM77 0v-35h34V0H77" id="aO"/><g id="i"><use transform="matrix(0.06172839506172839,0,0,0.06172839506172839,0,0)" xlink:href="#aq"/><use transform="matrix(0.06172839506172839,0,0,0.06172839506172839,11.11111111111111,0)" xlink:href="#an"/><use transform="matrix(0.06172839506172839,0,0,0.06172839506172839,23.45679012345679,0)" xlink:href="#aF"/><use transform="matrix(0.06172839506172839,0,0,0.06172839506172839,30.80246913580247,0)" xlink:href="#ap"/><use transform="matrix(0.06172839506172839,0,0,0.06172839506172839,35.67901234567901,0)" xlink:href="#ar"/><use transform="matrix(0.06172839506172839,0,0,0.06172839506172839,41.851851851851855,0)" xlink:href="#ap"/><use transform="matrix(0.06172839506172839,0,0,0.06172839506172839,46.7283950617284,0)" xlink:href="#an"/><use transform="matrix(0.06172839506172839,0,0,0.06172839506172839,59.074074074074076,0)" xlink:href="#au"/><use transform="matrix(0.06172839506172839,0,0,0.06172839506172839,71.41975308641976,0)" xlink:href="#aO"/></g><path fill="#333" d="M143 4C61 4 22-44 18-125c-5-107 100-154 193-111 17 8 29 25 37 43l-32 9c-13-25-37-40-76-40-61 0-88 39-88 99 0 61 29 100 91 101 35 0 62-11 79-27v-45h-74v-28h105v86C228-13 192 4 143 4" id="aP"/><g id="j"><use transform="matrix(0.06172839506172839,0,0,0.06172839506172839,0,0)" xlink:href="#aP"/><use transform="matrix(0.06172839506172839,0,0,0.06172839506172839,17.28395061728395,0)" xlink:href="#an"/><use transform="matrix(0.06172839506172839,0,0,0.06172839506172839,29.629629629629626,0)" xlink:href="#aN"/></g><path fill="#333" d="M140-251c81 0 123 46 123 126C263-46 219 4 140 4 59 4 17-45 17-125s42-126 123-126zm0 227c63 0 89-41 89-101s-29-99-89-99c-61 0-89 39-89 99S79-25 140-24" id="aQ"/><path fill="#333" d="M127-220V0H93v-220H8v-28h204v28h-85" id="aR"/><path fill="#333" d="M30-248c87 1 191-15 191 75 0 78-77 80-158 76V0H30v-248zm33 125c57 0 124 11 124-50 0-59-68-47-124-48v98" id="aS"/><g id="k"><use transform="matrix(0.06172839506172839,0,0,0.06172839506172839,0,0)" xlink:href="#aQ"/><use transform="matrix(0.06172839506172839,0,0,0.06172839506172839,17.28395061728395,0)" xlink:href="#aR"/><use transform="matrix(0.06172839506172839,0,0,0.06172839506172839,30.80246913580247,0)" xlink:href="#aS"/></g><g id="l"><use transform="matrix(0.06172839506172839,0,0,0.06172839506172839,0,0)" xlink:href="#aR"/><use transform="matrix(0.06172839506172839,0,0,0.06172839506172839,12.716049382716047,0)" xlink:href="#aF"/><use transform="matrix(0.06172839506172839,0,0,0.06172839506172839,20.061728395061728,0)" xlink:href="#aC"/><use transform="matrix(0.06172839506172839,0,0,0.06172839506172839,32.407407407407405,0)" xlink:href="#at"/><use transform="matrix(0.06172839506172839,0,0,0.06172839506172839,44.75308641975308,0)" xlink:href="#av"/><use transform="matrix(0.06172839506172839,0,0,0.06172839506172839,55.86419753086419,0)" xlink:href="#ar"/><use transform="matrix(0.06172839506172839,0,0,0.06172839506172839,62.03703703703703,0)" xlink:href="#an"/><use transform="matrix(0.06172839506172839,0,0,0.06172839506172839,74.38271604938271,0)" xlink:href="#aF"/></g><path fill="#333" d="M24 0v-261h32V0H24" id="aT"/><g id="m"><use transform="matrix(0.06172839506172839,0,0,0.06172839506172839,0,0)" xlink:href="#av"/><use transform="matrix(0.06172839506172839,0,0,0.06172839506172839,11.11111111111111,0)" xlink:href="#as"/><use transform="matrix(0.06172839506172839,0,0,0.06172839506172839,23.45679012345679,0)" xlink:href="#ao"/><use transform="matrix(0.06172839506172839,0,0,0.06172839506172839,34.5679012345679,0)" xlink:href="#ao"/><use transform="matrix(0.06172839506172839,0,0,0.06172839506172839,45.67901234567901,0)" xlink:href="#an"/><use transform="matrix(0.06172839506172839,0,0,0.06172839506172839,58.02469135802469,0)" xlink:href="#av"/><use transform="matrix(0.06172839506172839,0,0,0.06172839506172839,69.1358024691358,0)" xlink:href="#av"/><use transform="matrix(0.06172839506172839,0,0,0.06172839506172839,80.24691358024691,0)" xlink:href="#ar"/><use transform="matrix(0.06172839506172839,0,0,0.06172839506172839,86.41975308641975,0)" xlink:href="#as"/><use transform="matrix(0.06172839506172839,0,0,0.06172839506172839,98.76543209876543,0)" xlink:href="#aT"/></g><path fill="#333" d="M182-130c37 4 62 22 62 59C244 23 116-4 24 0v-248c84 5 203-23 205 63 0 31-19 50-47 55zM76-148c40-3 101 13 101-30 0-44-60-28-101-31v61zm0 110c48-3 116 14 116-37 0-48-69-32-116-35v72" id="aU"/><path fill="#333" d="M133-34C117-15 103 5 69 4 32 3 11-16 11-54c-1-60 55-63 116-61 1-26-3-47-28-47-18 1-26 9-28 27l-52-2c7-38 36-58 82-57s74 22 75 68l1 82c-1 14 12 18 25 15v27c-30 8-71 5-69-32zm-48 3c29 0 43-24 42-57-32 0-66-3-65 30 0 17 8 27 23 27" id="aV"/><path fill="#333" d="M88-194c31-1 46 15 58 34l-1-101h50l1 261h-48c-2-10 0-23-3-31C134-8 116 4 84 4 32 4 16-41 15-95c0-56 19-97 73-99zm17 164c33 0 40-30 41-66 1-37-9-64-41-64s-38 30-39 65c0 43 13 65 39 65" id="aW"/><g id="n"><use transform="matrix(0.04938271604938272,0,0,0.04938271604938272,0,0)" xlink:href="#aU"/><use transform="matrix(0.04938271604938272,0,0,0.04938271604938272,12.790123456790125,0)" xlink:href="#aV"/><use transform="matrix(0.04938271604938272,0,0,0.04938271604938272,22.66666666666667,0)" xlink:href="#aW"/></g><path fill="#333" d="M190-63c-7 42-38 67-86 67-59 0-84-38-90-98-12-110 154-137 174-36l-49 2c-2-19-15-32-35-32-30 0-35 28-38 64-6 74 65 87 74 30" id="aX"/><path fill="#333" d="M25-224v-37h50v37H25zM25 0v-190h50V0H25" id="aY"/><g id="o"><use transform="matrix(0.04938271604938272,0,0,0.04938271604938272,0,0)" xlink:href="#aX"/><use transform="matrix(0.04938271604938272,0,0,0.04938271604938272,9.876543209876544,0)" xlink:href="#aA"/><use transform="matrix(0.04938271604938272,0,0,0.04938271604938272,16.790123456790127,0)" xlink:href="#az"/><use transform="matrix(0.04938271604938272,0,0,0.04938271604938272,26.666666666666668,0)" xlink:href="#aW"/><use transform="matrix(0.04938271604938272,0,0,0.04938271604938272,37.48148148148149,0)" xlink:href="#aY"/><use transform="matrix(0.04938271604938272,0,0,0.04938271604938272,42.41975308641976,0)" xlink:href="#ay"/></g><path fill="#3a414a" d="M76-208v77h127v40H76V0H24v-248h183v40H76" id="aZ"/><path fill="#3a414a" d="M133-34C117-15 103 5 69 4 32 3 11-16 11-54c-1-60 55-63 116-61 1-26-3-47-28-47-18 1-26 9-28 27l-52-2c7-38 36-58 82-57s74 22 75 68l1 82c-1 14 12 18 25 15v27c-30 8-71 5-69-32zm-48 3c29 0 43-24 42-57-32 0-66-3-65 30 0 17 8 27 23 27" id="ba"/><path fill="#3a414a" d="M25 0v-261h50V0H25" id="bb"/><path fill="#3a414a" d="M137-138c1-29-70-34-71-4 15 46 118 7 119 86 1 83-164 76-172 9l43-7c4 19 20 25 44 25 33 8 57-30 24-41C81-84 22-81 20-136c-2-80 154-74 161-7" id="bc"/><path fill="#3a414a" d="M185-48c-13 30-37 53-82 52C43 2 14-33 14-96s30-98 90-98c62 0 83 45 84 108H66c0 31 8 55 39 56 18 0 30-7 34-22zm-45-69c5-46-57-63-70-21-2 6-4 13-4 21h74" id="bd"/><g id="p"><use transform="matrix(0.05,0,0,0.05,0,0)" xlink:href="#aZ"/><use transform="matrix(0.05,0,0,0.05,10.950000000000001,0)" xlink:href="#ba"/><use transform="matrix(0.05,0,0,0.05,20.950000000000003,0)" xlink:href="#bb"/><use transform="matrix(0.05,0,0,0.05,25.950000000000003,0)" xlink:href="#bc"/><use transform="matrix(0.05,0,0,0.05,35.95,0)" xlink:href="#bd"/></g><path fill="#333" d="M115-194c53 0 69 39 70 98 0 66-23 100-70 100C84 3 66-7 56-30L54 0H23l1-261h32v101c10-23 28-34 59-34zm-8 174c40 0 45-34 45-75 0-40-5-75-45-74-42 0-51 32-51 76 0 43 10 73 51 73" id="be"/><g id="q"><use transform="matrix(0.06172839506172839,0,0,0.06172839506172839,0,0)" xlink:href="#be"/><use transform="matrix(0.06172839506172839,0,0,0.06172839506172839,12.345679012345679,0)" xlink:href="#aq"/><use transform="matrix(0.06172839506172839,0,0,0.06172839506172839,23.45679012345679,0)" xlink:href="#at"/></g><path fill="#333" d="M143 0L79-87 56-68V0H24v-261h32v163l83-92h37l-77 82L181 0h-38" id="bf"/><g id="r"><use transform="matrix(0.06172839506172839,0,0,0.06172839506172839,0,0)" xlink:href="#be"/><use transform="matrix(0.06172839506172839,0,0,0.06172839506172839,12.345679012345679,0)" xlink:href="#aT"/><use transform="matrix(0.06172839506172839,0,0,0.06172839506172839,17.22222222222222,0)" xlink:href="#aC"/><use transform="matrix(0.06172839506172839,0,0,0.06172839506172839,29.5679012345679,0)" xlink:href="#ao"/><use transform="matrix(0.06172839506172839,0,0,0.06172839506172839,40.67901234567901,0)" xlink:href="#bf"/><use transform="matrix(0.06172839506172839,0,0,0.06172839506172839,51.79012345679013,0)" xlink:href="#aT"/><use transform="matrix(0.06172839506172839,0,0,0.06172839506172839,56.66666666666667,0)" xlink:href="#ap"/><use transform="matrix(0.06172839506172839,0,0,0.06172839506172839,61.543209876543216,0)" xlink:href="#av"/><use transform="matrix(0.06172839506172839,0,0,0.06172839506172839,72.65432098765433,0)" xlink:href="#aN"/><use transform="matrix(0.06172839506172839,0,0,0.06172839506172839,78.82716049382717,0)" xlink:href="#an"/><use transform="matrix(0.06172839506172839,0,0,0.06172839506172839,91.17283950617285,0)" xlink:href="#au"/></g><g id="s"><use transform="matrix(0.06172839506172839,0,0,0.06172839506172839,0,0)" xlink:href="#aL"/><use transform="matrix(0.06172839506172839,0,0,0.06172839506172839,14.814814814814813,0)" xlink:href="#ao"/><use transform="matrix(0.06172839506172839,0,0,0.06172839506172839,25.925925925925924,0)" xlink:href="#ao"/><use transform="matrix(0.06172839506172839,0,0,0.06172839506172839,37.03703703703704,0)" xlink:href="#aE"/><use transform="matrix(0.06172839506172839,0,0,0.06172839506172839,49.382716049382715,0)" xlink:href="#as"/><use transform="matrix(0.06172839506172839,0,0,0.06172839506172839,61.72839506172839,0)" xlink:href="#at"/><use transform="matrix(0.06172839506172839,0,0,0.06172839506172839,74.07407407407408,0)" xlink:href="#aN"/></g><g id="t"><use transform="matrix(0.06172839506172839,0,0,0.06172839506172839,0,0)" xlink:href="#aC"/><use transform="matrix(0.06172839506172839,0,0,0.06172839506172839,12.345679012345679,0)" xlink:href="#aB"/><use transform="matrix(0.06172839506172839,0,0,0.06172839506172839,24.691358024691358,0)" xlink:href="#aB"/><use transform="matrix(0.06172839506172839,0,0,0.06172839506172839,37.03703703703704,0)" xlink:href="#aF"/><use transform="matrix(0.06172839506172839,0,0,0.06172839506172839,44.382716049382715,0)" xlink:href="#aE"/><use transform="matrix(0.06172839506172839,0,0,0.06172839506172839,56.72839506172839,0)" xlink:href="#aq"/><use transform="matrix(0.06172839506172839,0,0,0.06172839506172839,67.8395061728395,0)" xlink:href="#an"/><use transform="matrix(0.06172839506172839,0,0,0.06172839506172839,80.18518518518519,0)" xlink:href="#au"/></g><path fill="#3a414a" d="M136-208V0H84v-208H4v-40h212v40h-80" id="bg"/><path fill="#3a414a" d="M135-150c-39-12-60 13-60 57V0H25l-1-190h47c2 13-1 29 3 40 6-28 27-53 61-41v41" id="bh"/><path fill="#3a414a" d="M85 4C-2 5 27-109 22-190h50c7 57-23 150 33 157 60-5 35-97 40-157h50l1 190h-47c-2-12 1-28-3-38-12 25-28 42-61 42" id="bi"/><g id="u"><use transform="matrix(0.05,0,0,0.05,0,0)" xlink:href="#bg"/><use transform="matrix(0.05,0,0,0.05,9.950000000000001,0)" xlink:href="#bh"/><use transform="matrix(0.05,0,0,0.05,16.950000000000003,0)" xlink:href="#bi"/><use transform="matrix(0.05,0,0,0.05,27.900000000000006,0)" xlink:href="#bd"/></g><g id="v"><use transform="matrix(0.05,0,0,0.05,0,0)" xlink:href="#aL"/><use transform="matrix(0.05,0,0,0.05,12,0)" xlink:href="#as"/><use transform="matrix(0.05,0,0,0.05,22,0)" xlink:href="#aN"/><use transform="matrix(0.05,0,0,0.05,27,0)" xlink:href="#aG"/><use transform="matrix(0.05,0,0,0.05,37,0)" xlink:href="#an"/><use transform="matrix(0.05,0,0,0.05,47,0)" xlink:href="#at"/><use transform="matrix(0.05,0,0,0.05,57,0)" xlink:href="#aN"/><use transform="matrix(0.05,0,0,0.05,62,0)" xlink:href="#ap"/><use transform="matrix(0.05,0,0,0.05,65.95,0)" xlink:href="#ao"/><use transform="matrix(0.05,0,0,0.05,74.95,0)" xlink:href="#aC"/><use transform="matrix(0.05,0,0,0.05,84.95,0)" xlink:href="#aN"/><use transform="matrix(0.05,0,0,0.05,89.95,0)" xlink:href="#an"/><use transform="matrix(0.05,0,0,0.05,99.95,0)" xlink:href="#au"/><use transform="matrix(0.05,0,0,0.05,109.95,0)" xlink:href="#aO"/></g><g id="w"><use transform="matrix(0.05555555555555554,0,0,0.05555555555555554,0,0)" xlink:href="#aK"/><use transform="matrix(0.05555555555555554,0,0,0.05555555555555554,5.555555555555554,0)" xlink:href="#at"/><use transform="matrix(0.05555555555555554,0,0,0.05555555555555554,16.66666666666666,0)" xlink:href="#aq"/><use transform="matrix(0.05555555555555554,0,0,0.05555555555555554,26.666666666666657,0)" xlink:href="#aC"/><use transform="matrix(0.05555555555555554,0,0,0.05555555555555554,37.777777777777764,0)" xlink:href="#aT"/><use transform="matrix(0.05555555555555554,0,0,0.05555555555555554,42.16666666666665,0)" xlink:href="#ap"/><use transform="matrix(0.05555555555555554,0,0,0.05555555555555554,46.555555555555536,0)" xlink:href="#au"/></g><g id="x"><use transform="matrix(0.05555555555555554,0,0,0.05555555555555554,0,0)" xlink:href="#ao"/><use transform="matrix(0.05555555555555554,0,0,0.05555555555555554,9.999999999999996,0)" xlink:href="#aF"/><use transform="matrix(0.05555555555555554,0,0,0.05555555555555554,16.611111111111107,0)" xlink:href="#an"/><use transform="matrix(0.05555555555555554,0,0,0.05555555555555554,27.722222222222214,0)" xlink:href="#au"/><use transform="matrix(0.05555555555555554,0,0,0.05555555555555554,38.83333333333332,0)" xlink:href="#an"/><use transform="matrix(0.05555555555555554,0,0,0.05555555555555554,49.94444444444443,0)" xlink:href="#at"/><use transform="matrix(0.05555555555555554,0,0,0.05555555555555554,61.055555555555536,0)" xlink:href="#aN"/><use transform="matrix(0.05555555555555554,0,0,0.05555555555555554,66.61111111111109,0)" xlink:href="#ap"/><use transform="matrix(0.05555555555555554,0,0,0.05555555555555554,70.99999999999997,0)" xlink:href="#aC"/><use transform="matrix(0.05555555555555554,0,0,0.05555555555555554,82.11111111111109,0)" xlink:href="#aT"/><use transform="matrix(0.05555555555555554,0,0,0.05555555555555554,86.49999999999997,0)" xlink:href="#av"/></g><path fill="#333" d="M63-220v92h138v28H63V0H30v-248h175v28H63" id="bj"/><g id="y"><use transform="matrix(0.06172839506172839,0,0,0.06172839506172839,0,0)" xlink:href="#bj"/><use transform="matrix(0.06172839506172839,0,0,0.06172839506172839,13.518518518518517,0)" xlink:href="#an"/><use transform="matrix(0.06172839506172839,0,0,0.06172839506172839,25.864197530864196,0)" xlink:href="#aN"/><use transform="matrix(0.06172839506172839,0,0,0.06172839506172839,32.03703703703704,0)" xlink:href="#ao"/><use transform="matrix(0.06172839506172839,0,0,0.06172839506172839,43.14814814814815,0)" xlink:href="#aG"/></g><g id="z"><use transform="matrix(0.06172839506172839,0,0,0.06172839506172839,0,0)" xlink:href="#ao"/><use transform="matrix(0.06172839506172839,0,0,0.06172839506172839,11.11111111111111,0)" xlink:href="#aT"/><use transform="matrix(0.06172839506172839,0,0,0.06172839506172839,15.987654320987653,0)" xlink:href="#ap"/><use transform="matrix(0.06172839506172839,0,0,0.06172839506172839,20.864197530864196,0)" xlink:href="#an"/><use transform="matrix(0.06172839506172839,0,0,0.06172839506172839,33.20987654320987,0)" xlink:href="#at"/><use transform="matrix(0.06172839506172839,0,0,0.06172839506172839,45.55555555555555,0)" xlink:href="#aN"/></g><g id="A"><use transform="matrix(0.06172839506172839,0,0,0.06172839506172839,0,0)" xlink:href="#au"/><use transform="matrix(0.06172839506172839,0,0,0.06172839506172839,12.345679012345679,0)" xlink:href="#an"/><use transform="matrix(0.06172839506172839,0,0,0.06172839506172839,24.691358024691358,0)" xlink:href="#aN"/><use transform="matrix(0.06172839506172839,0,0,0.06172839506172839,30.864197530864196,0)" xlink:href="#aC"/><use transform="matrix(0.06172839506172839,0,0,0.06172839506172839,43.20987654320987,0)" xlink:href="#ap"/><use transform="matrix(0.06172839506172839,0,0,0.06172839506172839,48.08641975308642,0)" xlink:href="#aT"/><use transform="matrix(0.06172839506172839,0,0,0.06172839506172839,52.96296296296296,0)" xlink:href="#av"/></g><g id="B"><use transform="matrix(0.06172839506172839,0,0,0.06172839506172839,0,0)" xlink:href="#aD"/><use transform="matrix(0.06172839506172839,0,0,0.06172839506172839,15.987654320987653,0)" xlink:href="#ap"/><use transform="matrix(0.06172839506172839,0,0,0.06172839506172839,20.864197530864196,0)" xlink:href="#aN"/><use transform="matrix(0.06172839506172839,0,0,0.06172839506172839,27.037037037037035,0)" xlink:href="#aG"/></g><g id="C"><use transform="matrix(0.06172839506172839,0,0,0.06172839506172839,0,0)" xlink:href="#be"/><use transform="matrix(0.06172839506172839,0,0,0.06172839506172839,12.345679012345679,0)" xlink:href="#aq"/><use transform="matrix(0.06172839506172839,0,0,0.06172839506172839,23.45679012345679,0)" xlink:href="#at"/></g><path fill="#333" d="M137 0h-34L2-248h35l83 218 83-218h36" id="bk"/><g id="D"><use transform="matrix(0.06172839506172839,0,0,0.06172839506172839,0,0)" xlink:href="#bk"/><use transform="matrix(0.06172839506172839,0,0,0.06172839506172839,14.382716049382715,0)" xlink:href="#ap"/><use transform="matrix(0.06172839506172839,0,0,0.06172839506172839,19.25925925925926,0)" xlink:href="#an"/><use transform="matrix(0.06172839506172839,0,0,0.06172839506172839,31.604938271604937,0)" xlink:href="#aD"/></g><g id="E"><use transform="matrix(0.06172839506172839,0,0,0.06172839506172839,0,0)" xlink:href="#aR"/><use transform="matrix(0.06172839506172839,0,0,0.06172839506172839,12.716049382716047,0)" xlink:href="#aF"/><use transform="matrix(0.06172839506172839,0,0,0.06172839506172839,20.061728395061728,0)" xlink:href="#aC"/><use transform="matrix(0.06172839506172839,0,0,0.06172839506172839,32.407407407407405,0)" xlink:href="#at"/><use transform="matrix(0.06172839506172839,0,0,0.06172839506172839,44.75308641975308,0)" xlink:href="#av"/><use transform="matrix(0.06172839506172839,0,0,0.06172839506172839,55.86419753086419,0)" xlink:href="#aC"/><use transform="matrix(0.06172839506172839,0,0,0.06172839506172839,68.20987654320987,0)" xlink:href="#ao"/><use transform="matrix(0.06172839506172839,0,0,0.06172839506172839,79.32098765432099,0)" xlink:href="#aN"/><use transform="matrix(0.06172839506172839,0,0,0.06172839506172839,85.49382716049382,0)" xlink:href="#ap"/><use transform="matrix(0.06172839506172839,0,0,0.06172839506172839,90.37037037037037,0)" xlink:href="#aE"/><use transform="matrix(0.06172839506172839,0,0,0.06172839506172839,102.71604938271605,0)" xlink:href="#at"/><use transform="matrix(0.06172839506172839,0,0,0.06172839506172839,115.06172839506173,0)" xlink:href="#av"/></g><path fill="#333" d="M185-189c-5-48-123-54-124 2 14 75 158 14 163 119 3 78-121 87-175 55-17-10-28-26-33-46l33-7c5 56 141 63 141-1 0-78-155-14-162-118-5-82 145-84 179-34 5 7 8 16 11 25" id="bl"/><g id="F"><use transform="matrix(0.06172839506172839,0,0,0.06172839506172839,0,0)" xlink:href="#bl"/><use transform="matrix(0.06172839506172839,0,0,0.06172839506172839,14.814814814814813,0)" xlink:href="#aN"/><use transform="matrix(0.06172839506172839,0,0,0.06172839506172839,20.98765432098765,0)" xlink:href="#aC"/><use transform="matrix(0.06172839506172839,0,0,0.06172839506172839,33.33333333333333,0)" xlink:href="#aF"/><use transform="matrix(0.06172839506172839,0,0,0.06172839506172839,40.679012345679006,0)" xlink:href="#aN"/></g><path fill="#333" d="M9 0v-24l116-142H16v-24h144v24L44-24h123V0H9" id="bm"/><g id="G"><use transform="matrix(0.06172839506172839,0,0,0.06172839506172839,0,0)" xlink:href="#aK"/><use transform="matrix(0.06172839506172839,0,0,0.06172839506172839,6.172839506172839,0)" xlink:href="#at"/><use transform="matrix(0.06172839506172839,0,0,0.06172839506172839,18.51851851851852,0)" xlink:href="#ap"/><use transform="matrix(0.06172839506172839,0,0,0.06172839506172839,23.395061728395063,0)" xlink:href="#aN"/><use transform="matrix(0.06172839506172839,0,0,0.06172839506172839,29.567901234567902,0)" xlink:href="#ap"/><use transform="matrix(0.06172839506172839,0,0,0.06172839506172839,34.44444444444444,0)" xlink:href="#aC"/><use transform="matrix(0.06172839506172839,0,0,0.06172839506172839,46.79012345679012,0)" xlink:href="#aT"/><use transform="matrix(0.06172839506172839,0,0,0.06172839506172839,51.666666666666664,0)" xlink:href="#ap"/><use transform="matrix(0.06172839506172839,0,0,0.06172839506172839,56.54320987654321,0)" xlink:href="#bm"/><use transform="matrix(0.06172839506172839,0,0,0.06172839506172839,67.65432098765432,0)" xlink:href="#an"/></g><g id="H"><use transform="matrix(0.06172839506172839,0,0,0.06172839506172839,0,0)" xlink:href="#aL"/><use transform="matrix(0.06172839506172839,0,0,0.06172839506172839,14.814814814814813,0)" xlink:href="#au"/><use transform="matrix(0.06172839506172839,0,0,0.06172839506172839,27.160493827160494,0)" xlink:href="#aM"/><use transform="matrix(0.06172839506172839,0,0,0.06172839506172839,32.03703703703704,0)" xlink:href="#as"/><use transform="matrix(0.06172839506172839,0,0,0.06172839506172839,44.382716049382715,0)" xlink:href="#ao"/><use transform="matrix(0.06172839506172839,0,0,0.06172839506172839,55.49382716049382,0)" xlink:href="#aN"/><use transform="matrix(0.06172839506172839,0,0,0.06172839506172839,61.666666666666664,0)" xlink:href="#aE"/><use transform="matrix(0.06172839506172839,0,0,0.06172839506172839,74.01234567901234,0)" xlink:href="#aF"/></g><g id="I"><use transform="matrix(0.06172839506172839,0,0,0.06172839506172839,0,0)" xlink:href="#be"/><use transform="matrix(0.06172839506172839,0,0,0.06172839506172839,12.345679012345679,0)" xlink:href="#aq"/><use transform="matrix(0.06172839506172839,0,0,0.06172839506172839,23.45679012345679,0)" xlink:href="#at"/></g><g id="J"><use transform="matrix(0.06172839506172839,0,0,0.06172839506172839,0,0)" xlink:href="#aL"/><use transform="matrix(0.06172839506172839,0,0,0.06172839506172839,14.814814814814813,0)" xlink:href="#aS"/><use transform="matrix(0.06172839506172839,0,0,0.06172839506172839,29.629629629629626,0)" xlink:href="#aK"/></g><path fill="#333" d="M30-248c118-7 216 8 213 122C240-48 200 0 122 0H30v-248zM63-27c89 8 146-16 146-99s-60-101-146-95v194" id="bn"/><path fill="#333" d="M179-190L93 31C79 59 56 82 12 73V49c39 6 53-20 64-50L1-190h34L92-34l54-156h33" id="bo"/><g id="K"><use transform="matrix(0.06172839506172839,0,0,0.06172839506172839,0,0)" xlink:href="#bn"/><use transform="matrix(0.06172839506172839,0,0,0.06172839506172839,15.987654320987653,0)" xlink:href="#ap"/><use transform="matrix(0.06172839506172839,0,0,0.06172839506172839,20.864197530864196,0)" xlink:href="#av"/><use transform="matrix(0.06172839506172839,0,0,0.06172839506172839,31.975308641975307,0)" xlink:href="#aB"/><use transform="matrix(0.06172839506172839,0,0,0.06172839506172839,44.32098765432099,0)" xlink:href="#aT"/><use transform="matrix(0.06172839506172839,0,0,0.06172839506172839,49.19753086419753,0)" xlink:href="#aC"/><use transform="matrix(0.06172839506172839,0,0,0.06172839506172839,61.54320987654321,0)" xlink:href="#bo"/></g><g id="L"><use transform="matrix(0.06172839506172839,0,0,0.06172839506172839,0,0)" xlink:href="#aR"/><use transform="matrix(0.06172839506172839,0,0,0.06172839506172839,12.716049382716047,0)" xlink:href="#aF"/><use transform="matrix(0.06172839506172839,0,0,0.06172839506172839,20.061728395061728,0)" xlink:href="#aC"/><use transform="matrix(0.06172839506172839,0,0,0.06172839506172839,32.407407407407405,0)" xlink:href="#at"/><use transform="matrix(0.06172839506172839,0,0,0.06172839506172839,44.75308641975308,0)" xlink:href="#av"/><use transform="matrix(0.06172839506172839,0,0,0.06172839506172839,55.86419753086419,0)" xlink:href="#aC"/><use transform="matrix(0.06172839506172839,0,0,0.06172839506172839,68.20987654320987,0)" xlink:href="#ao"/><use transform="matrix(0.06172839506172839,0,0,0.06172839506172839,79.32098765432099,0)" xlink:href="#aN"/><use transform="matrix(0.06172839506172839,0,0,0.06172839506172839,85.49382716049382,0)" xlink:href="#ap"/><use transform="matrix(0.06172839506172839,0,0,0.06172839506172839,90.37037037037037,0)" xlink:href="#aE"/><use transform="matrix(0.06172839506172839,0,0,0.06172839506172839,102.71604938271605,0)" xlink:href="#at"/></g><g id="M"><use transform="matrix(0.06172839506172839,0,0,0.06172839506172839,0,0)" xlink:href="#aF"/><use transform="matrix(0.06172839506172839,0,0,0.06172839506172839,7.345679012345679,0)" xlink:href="#an"/><use transform="matrix(0.06172839506172839,0,0,0.06172839506172839,19.691358024691358,0)" xlink:href="#ao"/><use transform="matrix(0.06172839506172839,0,0,0.06172839506172839,30.80246913580247,0)" xlink:href="#aE"/><use transform="matrix(0.06172839506172839,0,0,0.06172839506172839,43.148148148148145,0)" xlink:href="#aF"/><use transform="matrix(0.06172839506172839,0,0,0.06172839506172839,50.49382716049382,0)" xlink:href="#au"/><use transform="matrix(0.06172839506172839,0,0,0.06172839506172839,62.8395061728395,0)" xlink:href="#av"/></g><g id="N"><use transform="matrix(0.06172839506172839,0,0,0.06172839506172839,0,0)" xlink:href="#ao"/><use transform="matrix(0.06172839506172839,0,0,0.06172839506172839,11.11111111111111,0)" xlink:href="#aF"/><use transform="matrix(0.06172839506172839,0,0,0.06172839506172839,18.45679012345679,0)" xlink:href="#an"/><use transform="matrix(0.06172839506172839,0,0,0.06172839506172839,30.80246913580247,0)" xlink:href="#au"/><use transform="matrix(0.06172839506172839,0,0,0.06172839506172839,43.148148148148145,0)" xlink:href="#ap"/><use transform="matrix(0.06172839506172839,0,0,0.06172839506172839,48.02469135802469,0)" xlink:href="#aN"/><use transform="matrix(0.06172839506172839,0,0,0.06172839506172839,54.19753086419753,0)" xlink:href="#an"/><use transform="matrix(0.06172839506172839,0,0,0.06172839506172839,66.54320987654322,0)" xlink:href="#au"/></g><g id="O"><use transform="matrix(0.06172839506172839,0,0,0.06172839506172839,0,0)" xlink:href="#aF"/><use transform="matrix(0.06172839506172839,0,0,0.06172839506172839,7.345679012345679,0)" xlink:href="#an"/><use transform="matrix(0.06172839506172839,0,0,0.06172839506172839,19.691358024691358,0)" xlink:href="#ao"/><use transform="matrix(0.06172839506172839,0,0,0.06172839506172839,30.80246913580247,0)" xlink:href="#ap"/><use transform="matrix(0.06172839506172839,0,0,0.06172839506172839,35.67901234567901,0)" xlink:href="#aB"/><use transform="matrix(0.06172839506172839,0,0,0.06172839506172839,48.02469135802469,0)" xlink:href="#ap"/><use transform="matrix(0.06172839506172839,0,0,0.06172839506172839,52.901234567901234,0)" xlink:href="#an"/><use transform="matrix(0.06172839506172839,0,0,0.06172839506172839,65.24691358024691,0)" xlink:href="#at"/><use transform="matrix(0.06172839506172839,0,0,0.06172839506172839,77.5925925925926,0)" xlink:href="#aN"/></g><g id="P"><use transform="matrix(0.06172839506172839,0,0,0.06172839506172839,0,0)" xlink:href="#aC"/><use transform="matrix(0.06172839506172839,0,0,0.06172839506172839,12.345679012345679,0)" xlink:href="#ao"/><use transform="matrix(0.06172839506172839,0,0,0.06172839506172839,23.45679012345679,0)" xlink:href="#ao"/><use transform="matrix(0.06172839506172839,0,0,0.06172839506172839,34.5679012345679,0)" xlink:href="#aE"/><use transform="matrix(0.06172839506172839,0,0,0.06172839506172839,46.913580246913575,0)" xlink:href="#as"/><use transform="matrix(0.06172839506172839,0,0,0.06172839506172839,59.25925925925925,0)" xlink:href="#at"/><use transform="matrix(0.06172839506172839,0,0,0.06172839506172839,71.60493827160494,0)" xlink:href="#aN"/></g><g id="Q"><use transform="matrix(0.06172839506172839,0,0,0.06172839506172839,0,0)" xlink:href="#ap"/><use transform="matrix(0.06172839506172839,0,0,0.06172839506172839,4.876543209876543,0)" xlink:href="#av"/></g><g id="R"><use transform="matrix(0.06172839506172839,0,0,0.06172839506172839,0,0)" xlink:href="#bk"/><use transform="matrix(0.06172839506172839,0,0,0.06172839506172839,13.148148148148147,0)" xlink:href="#aC"/><use transform="matrix(0.06172839506172839,0,0,0.06172839506172839,25.493827160493826,0)" xlink:href="#aT"/><use transform="matrix(0.06172839506172839,0,0,0.06172839506172839,30.370370370370367,0)" xlink:href="#ap"/><use transform="matrix(0.06172839506172839,0,0,0.06172839506172839,35.24691358024691,0)" xlink:href="#au"/></g><use transform="matrix(0.06172839506172839,0,0,0.06172839506172839,0,0)" xlink:href="#aO" id="S"/><g id="T"><use transform="matrix(0.055555555555555546,0,0,0.055555555555555546,0,0)" xlink:href="#be"/><use transform="matrix(0.055555555555555546,0,0,0.055555555555555546,11.111111111111109,0)" xlink:href="#aC"/><use transform="matrix(0.055555555555555546,0,0,0.055555555555555546,22.222222222222218,0)" xlink:href="#aT"/></g><path fill="#333" d="M18-27v-27l151-64-151-65v-27l175 74v36" id="bp"/><use transform="matrix(0.055555555555555546,0,0,0.055555555555555546,0,0)" xlink:href="#bp" id="U"/><path fill="#333" d="M18-150v-26h174v26H18zm0 90v-26h174v26H18" id="bq"/><use transform="matrix(0.055555555555555546,0,0,0.055555555555555546,0,0)" xlink:href="#bq" id="V"/><path fill="#333" d="M210-169c-67 3-38 105-44 169h-31v-121c0-29-5-50-35-48C34-165 62-65 56 0H25l-1-190h30c1 10-1 24 2 32 10-44 99-50 107 0 11-21 27-35 58-36 85-2 47 119 55 194h-31v-121c0-29-5-49-35-48" id="br"/><g id="W"><use transform="matrix(0.049382716049382706,0,0,0.049382716049382706,0,0)" xlink:href="#aC"/><use transform="matrix(0.049382716049382706,0,0,0.049382716049382706,9.87654320987654,0)" xlink:href="#br"/><use transform="matrix(0.049382716049382706,0,0,0.049382716049382706,24.641975308641968,0)" xlink:href="#aE"/><use transform="matrix(0.049382716049382706,0,0,0.049382716049382706,34.518518518518505,0)" xlink:href="#as"/><use transform="matrix(0.049382716049382706,0,0,0.049382716049382706,44.39506172839505,0)" xlink:href="#at"/><use transform="matrix(0.049382716049382706,0,0,0.049382716049382706,54.271604938271594,0)" xlink:href="#aN"/></g><path fill="#333" d="M234-2c-28 10-62 0-77-18C117 19 8 12 13-65c3-43 29-61 60-76-25-40-17-114 47-108 35 3 59 15 59 50 0 44-40 53-71 69 14 26 32 50 51 72 14-21 24-43 30-72l26 8c-9 33-21 57-38 82 13 13 33 22 57 15v23zM97-151c25-10 52-18 56-48-1-18-13-29-33-29-42 0-39 50-23 77zM42-66c-3 51 71 58 98 28-20-24-41-51-56-80-23 10-40 24-42 52" id="bs"/><g id="X"><use transform="matrix(0.055555555555555546,0,0,0.055555555555555546,0,0)" xlink:href="#bs"/><use transform="matrix(0.055555555555555546,0,0,0.055555555555555546,13.33333333333333,0)" xlink:href="#bs"/></g><g id="Y"><use transform="matrix(0.055555555555555546,0,0,0.055555555555555546,0,0)" xlink:href="#aF"/><use transform="matrix(0.055555555555555546,0,0,0.055555555555555546,6.61111111111111,0)" xlink:href="#an"/><use transform="matrix(0.055555555555555546,0,0,0.055555555555555546,17.722222222222218,0)" xlink:href="#ao"/><use transform="matrix(0.055555555555555546,0,0,0.055555555555555546,27.722222222222214,0)" xlink:href="#ap"/><use transform="matrix(0.055555555555555546,0,0,0.055555555555555546,32.1111111111111,0)" xlink:href="#an"/><use transform="matrix(0.055555555555555546,0,0,0.055555555555555546,43.22222222222221,0)" xlink:href="#aq"/><use transform="matrix(0.055555555555555546,0,0,0.055555555555555546,53.22222222222221,0)" xlink:href="#an"/><use transform="matrix(0.055555555555555546,0,0,0.055555555555555546,64.33333333333331,0)" xlink:href="#aF"/></g><g id="Z"><use transform="matrix(0.055555555555555546,0,0,0.055555555555555546,0,0)" xlink:href="#aL"/><use transform="matrix(0.055555555555555546,0,0,0.055555555555555546,13.33333333333333,0)" xlink:href="#ao"/><use transform="matrix(0.055555555555555546,0,0,0.055555555555555546,23.33333333333333,0)" xlink:href="#ao"/><use transform="matrix(0.055555555555555546,0,0,0.055555555555555546,33.33333333333333,0)" xlink:href="#aE"/><use transform="matrix(0.055555555555555546,0,0,0.055555555555555546,44.444444444444436,0)" xlink:href="#as"/><use transform="matrix(0.055555555555555546,0,0,0.055555555555555546,55.55555555555554,0)" xlink:href="#at"/><use transform="matrix(0.055555555555555546,0,0,0.055555555555555546,66.66666666666666,0)" xlink:href="#aN"/></g><path fill="#333" d="M141 0L90-78 38 0H4l68-98-65-92h35l48 74 47-74h35l-64 92 68 98h-35" id="bt"/><g id="aa"><use transform="matrix(0.055555555555555546,0,0,0.055555555555555546,0,0)" xlink:href="#an"/><use transform="matrix(0.055555555555555546,0,0,0.055555555555555546,11.111111111111109,0)" xlink:href="#bt"/><use transform="matrix(0.055555555555555546,0,0,0.055555555555555546,21.111111111111107,0)" xlink:href="#ap"/><use transform="matrix(0.055555555555555546,0,0,0.055555555555555546,25.499999999999996,0)" xlink:href="#av"/><use transform="matrix(0.055555555555555546,0,0,0.055555555555555546,35.49999999999999,0)" xlink:href="#aN"/></g><use transform="matrix(0.055555555555555546,0,0,0.055555555555555546,0,0)" xlink:href="#aO" id="ab"/><g id="ac"><use transform="matrix(0.06172839506172839,0,0,0.06172839506172839,0,0)" xlink:href="#aN"/><use transform="matrix(0.06172839506172839,0,0,0.06172839506172839,6.172839506172839,0)" xlink:href="#aF"/><use transform="matrix(0.06172839506172839,0,0,0.06172839506172839,13.518518518518519,0)" xlink:href="#aC"/><use transform="matrix(0.06172839506172839,0,0,0.06172839506172839,25.864197530864196,0)" xlink:href="#at"/><use transform="matrix(0.06172839506172839,0,0,0.06172839506172839,38.20987654320987,0)" xlink:href="#av"/><use transform="matrix(0.06172839506172839,0,0,0.06172839506172839,49.32098765432099,0)" xlink:href="#aC"/><use transform="matrix(0.06172839506172839,0,0,0.06172839506172839,61.666666666666664,0)" xlink:href="#ao"/><use transform="matrix(0.06172839506172839,0,0,0.06172839506172839,72.77777777777777,0)" xlink:href="#aN"/><use transform="matrix(0.06172839506172839,0,0,0.06172839506172839,78.9506172839506,0)" xlink:href="#ap"/><use transform="matrix(0.06172839506172839,0,0,0.06172839506172839,83.82716049382715,0)" xlink:href="#aE"/><use transform="matrix(0.06172839506172839,0,0,0.06172839506172839,96.17283950617283,0)" xlink:href="#at"/></g><g id="ad"><use transform="matrix(0.06172839506172839,0,0,0.06172839506172839,0,0)" xlink:href="#ar"/><use transform="matrix(0.06172839506172839,0,0,0.06172839506172839,6.172839506172839,0)" xlink:href="#aC"/><use transform="matrix(0.06172839506172839,0,0,0.06172839506172839,18.51851851851852,0)" xlink:href="#ap"/><use transform="matrix(0.06172839506172839,0,0,0.06172839506172839,23.395061728395063,0)" xlink:href="#aT"/><use transform="matrix(0.06172839506172839,0,0,0.06172839506172839,28.271604938271608,0)" xlink:href="#an"/><use transform="matrix(0.06172839506172839,0,0,0.06172839506172839,40.617283950617285,0)" xlink:href="#au"/></g><path fill="#3a414a" d="M63-220v92h138v28H63V0H30v-248h175v28H63" id="bu"/><path fill="#3a414a" d="M141-36C126-15 110 5 73 4 37 3 15-17 15-53c-1-64 63-63 125-63 3-35-9-54-41-54-24 1-41 7-42 31l-33-3c5-37 33-52 76-52 45 0 72 20 72 64v82c-1 20 7 32 28 27v20c-31 9-61-2-59-35zM48-53c0 20 12 33 32 33 41-3 63-29 60-74-43 2-92-5-92 41" id="bv"/><path fill="#3a414a" d="M24 0v-261h32V0H24" id="bw"/><path fill="#3a414a" d="M135-143c-3-34-86-38-87 0 15 53 115 12 119 90S17 21 10-45l28-5c4 36 97 45 98 0-10-56-113-15-118-90-4-57 82-63 122-42 12 7 21 19 24 35" id="bx"/><path fill="#3a414a" d="M100-194c63 0 86 42 84 106H49c0 40 14 67 53 68 26 1 43-12 49-29l28 8c-11 28-37 45-77 45C44 4 14-33 15-96c1-61 26-98 85-98zm52 81c6-60-76-77-97-28-3 7-6 17-6 28h103" id="by"/><g id="ae"><use transform="matrix(0.05,0,0,0.05,0,0)" xlink:href="#bu"/><use transform="matrix(0.05,0,0,0.05,10.950000000000001,0)" xlink:href="#bv"/><use transform="matrix(0.05,0,0,0.05,20.950000000000003,0)" xlink:href="#bw"/><use transform="matrix(0.05,0,0,0.05,24.900000000000002,0)" xlink:href="#bx"/><use transform="matrix(0.05,0,0,0.05,33.900000000000006,0)" xlink:href="#by"/></g><path fill="#3a414a" d="M24-248c120-7 223 5 221 122C244-46 201 0 124 0H24v-248zM76-40c74 7 117-18 117-86 0-67-45-88-117-82v168" id="bz"/><path fill="#3a414a" d="M199 0l-22-63H83L61 0H9l90-248h61L250 0h-51zm-33-102l-36-108c-10 38-24 72-36 108h72" id="bA"/><g id="af"><use transform="matrix(0.09320987654320984,0,0,0.09320987654320984,0,0)" xlink:href="#bz"/><use transform="matrix(0.09320987654320984,0,0,0.09320987654320984,24.141358024691346,0)" xlink:href="#bA"/><use transform="matrix(0.09320987654320984,0,0,0.09320987654320984,45.76604938271603,0)" xlink:href="#bg"/><use transform="matrix(0.09320987654320984,0,0,0.09320987654320984,63.66234567901232,0)" xlink:href="#bA"/><path fill="#3a414a" d="M-1.68 1.8H97.6v3.52H-1.7z"/></g><path fill="#3a414a" d="M24 0v-248h52v208h133V0H24" id="bB"/><path fill="#3a414a" d="M140-251c80 0 125 45 125 126S219 4 139 4C58 4 15-44 15-125s44-126 125-126zm-1 214c52 0 73-35 73-88 0-50-21-86-72-86-52 0-73 35-73 86s22 88 72 88" id="bC"/><path fill="#3a414a" d="M275 0h-61l-44-196L126 0H64L0-248h53L97-49l45-199h58l43 199 44-199h52" id="bD"/><g id="ag"><use transform="matrix(0.09320987654320984,0,0,0.09320987654320984,0,0)" xlink:href="#aZ"/><use transform="matrix(0.09320987654320984,0,0,0.09320987654320984,20.412962962962954,0)" xlink:href="#bB"/><use transform="matrix(0.09320987654320984,0,0,0.09320987654320984,40.82592592592591,0)" xlink:href="#bC"/><use transform="matrix(0.09320987654320984,0,0,0.09320987654320984,66.92469135802466,0)" xlink:href="#bD"/><path fill="#3a414a" d="M-1.68 1.8h111.2v3.52H-1.68z"/></g><path fill="#3a414a" d="M24 0v-248h52V0H24" id="bE"/><path fill="#3a414a" d="M67-125c0 54 23 88 75 88 28 0 53-7 68-21v-34h-60v-39h108v91C232-14 192 4 140 4 58 4 20-42 15-125 8-236 126-280 215-234c19 10 29 26 37 47l-47 15c-11-23-29-39-63-39-53 1-75 33-75 86" id="bF"/><path fill="#3a414a" d="M240-174c0 40-23 61-54 70L253 0h-59l-57-94H76V0H24v-248c93 4 217-23 216 74zM76-134c48-2 112 12 112-38 0-48-66-32-112-35v73" id="bG"/><path fill="#3a414a" d="M230 0l2-204L168 0h-37L68-204 70 0H24v-248h70l56 185 57-185h69V0h-46" id="bH"/><g id="ah"><use transform="matrix(0.09320987654320984,0,0,0.09320987654320984,0,0)" xlink:href="#bz"/><use transform="matrix(0.09320987654320984,0,0,0.09320987654320984,24.141358024691346,0)" xlink:href="#bE"/><use transform="matrix(0.09320987654320984,0,0,0.09320987654320984,33.46234567901233,0)" xlink:href="#bA"/><use transform="matrix(0.09320987654320984,0,0,0.09320987654320984,57.603703703703665,0)" xlink:href="#bF"/><use transform="matrix(0.09320987654320984,0,0,0.09320987654320984,83.70246913580243,0)" xlink:href="#bG"/><use transform="matrix(0.09320987654320984,0,0,0.09320987654320984,107.84382716049377,0)" xlink:href="#bA"/><use transform="matrix(0.09320987654320984,0,0,0.09320987654320984,131.98518518518512,0)" xlink:href="#bH"/><path fill="#3a414a" d="M-1.68 1.8h172.53v3.52H-1.68z"/></g><g id="ai"><use transform="matrix(0.09320987654320984,0,0,0.09320987654320984,0,0)" xlink:href="#aZ"/><use transform="matrix(0.09320987654320984,0,0,0.09320987654320984,20.412962962962954,0)" xlink:href="#bC"/><use transform="matrix(0.09320987654320984,0,0,0.09320987654320984,46.51172839506171,0)" xlink:href="#bG"/><path fill="#3a414a" d="M-1.68 1.8h83.33v3.52H-1.68z"/></g><path fill="#3a414a" d="M24 0v-248h195v40H76v63h132v40H76v65h150V0H24" id="bI"/><g id="aj"><use transform="matrix(0.09320987654320984,0,0,0.09320987654320984,0,0)" xlink:href="#bz"/><use transform="matrix(0.09320987654320984,0,0,0.09320987654320984,24.141358024691346,0)" xlink:href="#bI"/><use transform="matrix(0.09320987654320984,0,0,0.09320987654320984,46.51172839506171,0)" xlink:href="#bH"/><use transform="matrix(0.09320987654320984,0,0,0.09320987654320984,74.38148148148144,0)" xlink:href="#bC"/><path fill="#3a414a" d="M-1.68 1.8h113.16v3.52H-1.68z"/></g><path fill="#3a414a" d="M67-125c0 53 21 87 73 88 37 1 54-22 65-47l45 17C233-25 199 4 140 4 58 4 20-42 15-125 8-235 124-281 211-232c18 10 29 29 36 50l-46 12c-8-25-30-41-62-41-52 0-71 34-72 86" id="bJ"/><g id="ak"><use transform="matrix(0.09320987654320984,0,0,0.09320987654320984,0,0)" xlink:href="#bJ"/><use transform="matrix(0.09320987654320984,0,0,0.09320987654320984,24.141358024691346,0)" xlink:href="#bG"/><use transform="matrix(0.09320987654320984,0,0,0.09320987654320984,48.28271604938269,0)" xlink:href="#bI"/><use transform="matrix(0.09320987654320984,0,0,0.09320987654320984,70.65308641975305,0)" xlink:href="#bz"/><use transform="matrix(0.09320987654320984,0,0,0.09320987654320984,94.7944444444444,0)" xlink:href="#bE"/><use transform="matrix(0.09320987654320984,0,0,0.09320987654320984,104.11543209876538,0)" xlink:href="#bg"/><path fill="#3a414a" d="M-1.68 1.8h137.2v3.52H-1.68z"/></g><path fill="#3a414a" d="M24-248c93 1 206-16 204 79-1 75-69 88-152 82V0H24v-248zm52 121c47 0 100 7 100-41 0-47-54-39-100-39v80" id="bK"/><g id="al"><use transform="matrix(0.09320987654320984,0,0,0.09320987654320984,0,0)" xlink:href="#bA"/><use transform="matrix(0.09320987654320984,0,0,0.09320987654320984,24.141358024691346,0)" xlink:href="#bK"/><use transform="matrix(0.09320987654320984,0,0,0.09320987654320984,46.51172839506171,0)" xlink:href="#bK"/><path fill="#3a414a" d="M-1.68 1.8h71.6v3.52H-1.7z"/></g></defs></g></svg>